<?xml version="1.0" encoding="utf-8" standalone="no"?>
<!DOCTYPE svg PUBLIC "-//W3C//DTD SVG 1.1//EN"
  "http://www.w3.org/Graphics/SVG/1.1/DTD/svg11.dtd">
<svg xmlns:xlink="http://www.w3.org/1999/xlink" width="864pt" height="576pt" viewBox="0 0 864 576" xmlns="http://www.w3.org/2000/svg" version="1.1">
 <metadata>
  <rdf:RDF xmlns:dc="http://purl.org/dc/elements/1.1/" xmlns:cc="http://creativecommons.org/ns#" xmlns:rdf="http://www.w3.org/1999/02/22-rdf-syntax-ns#">
   <cc:Work>
    <dc:type rdf:resource="http://purl.org/dc/dcmitype/StillImage"/>
    <dc:date>2025-04-03T23:38:31.294559</dc:date>
    <dc:format>image/svg+xml</dc:format>
    <dc:creator>
     <cc:Agent>
      <dc:title>Matplotlib v3.8.4, https://matplotlib.org/</dc:title>
     </cc:Agent>
    </dc:creator>
   </cc:Work>
  </rdf:RDF>
 </metadata>
 <defs>
  <style type="text/css">*{stroke-linejoin: round; stroke-linecap: butt}</style>
 </defs>
 <g id="figure_1">
  <g id="patch_1">
   <path d="M 0 576 
L 864 576 
L 864 0 
L 0 0 
z
" style="fill: #ffffff"/>
  </g>
  <g id="axes_1">
   <g id="patch_2">
    <path d="M 47.72 518.65 
L 853.2 518.65 
L 853.2 26.88 
L 47.72 26.88 
z
" style="fill: #ffffff"/>
   </g>
   <g id="line2d_1">
    <path d="M 47.72 518.65 
L 853.2 518.65 
" clip-path="url(#p10aa2c0684)" style="fill: none; stroke-dasharray: 5.55,2.4; stroke-dashoffset: 0; stroke: #808080; stroke-opacity: 0.5; stroke-width: 1.5"/>
   </g>
   <g id="line2d_2">
    <path d="M 47.72 436.688333 
L 853.2 436.688333 
" clip-path="url(#p10aa2c0684)" style="fill: none; stroke-dasharray: 5.55,2.4; stroke-dashoffset: 0; stroke: #808080; stroke-opacity: 0.5; stroke-width: 1.5"/>
   </g>
   <g id="line2d_3">
    <path d="M 47.72 354.726667 
L 853.2 354.726667 
" clip-path="url(#p10aa2c0684)" style="fill: none; stroke-dasharray: 5.55,2.4; stroke-dashoffset: 0; stroke: #808080; stroke-opacity: 0.5; stroke-width: 1.5"/>
   </g>
   <g id="line2d_4">
    <path d="M 47.72 272.765 
L 853.2 272.765 
" clip-path="url(#p10aa2c0684)" style="fill: none; stroke-dasharray: 5.55,2.4; stroke-dashoffset: 0; stroke: #808080; stroke-opacity: 0.5; stroke-width: 1.5"/>
   </g>
   <g id="line2d_5">
    <path d="M 47.72 190.803333 
L 853.2 190.803333 
" clip-path="url(#p10aa2c0684)" style="fill: none; stroke-dasharray: 5.55,2.4; stroke-dashoffset: 0; stroke: #808080; stroke-opacity: 0.5; stroke-width: 1.5"/>
   </g>
   <g id="line2d_6">
    <path d="M 47.72 108.841667 
L 853.2 108.841667 
" clip-path="url(#p10aa2c0684)" style="fill: none; stroke-dasharray: 5.55,2.4; stroke-dashoffset: 0; stroke: #808080; stroke-opacity: 0.5; stroke-width: 1.5"/>
   </g>
   <g id="line2d_7">
    <path d="M 47.72 26.88 
L 853.2 26.88 
" clip-path="url(#p10aa2c0684)" style="fill: none; stroke-dasharray: 5.55,2.4; stroke-dashoffset: 0; stroke: #808080; stroke-opacity: 0.5; stroke-width: 1.5"/>
   </g>
   <g id="patch_3">
    <path d="M 84.332727 846.496667 
L 88.614918 846.496667 
L 88.614918 283.420017 
L 84.332727 283.420017 
z
" clip-path="url(#p10aa2c0684)" style="fill: #1f77b4"/>
   </g>
   <g id="patch_4">
    <path d="M 101.461489 846.496667 
L 105.743679 846.496667 
L 105.743679 265.38845 
L 101.461489 265.38845 
z
" clip-path="url(#p10aa2c0684)" style="fill: #1f77b4"/>
   </g>
   <g id="patch_5">
    <path d="M 118.59025 846.496667 
L 122.87244 846.496667 
L 122.87244 372.758233 
L 118.59025 372.758233 
z
" clip-path="url(#p10aa2c0684)" style="fill: #1f77b4"/>
   </g>
   <g id="patch_6">
    <path d="M 135.719011 846.496667 
L 140.001201 846.496667 
L 140.001201 210.474133 
L 135.719011 210.474133 
z
" clip-path="url(#p10aa2c0684)" style="fill: #1f77b4"/>
   </g>
   <g id="patch_7">
    <path d="M 152.847772 846.496667 
L 157.129963 846.496667 
L 157.129963 308.008517 
L 152.847772 308.008517 
z
" clip-path="url(#p10aa2c0684)" style="fill: #1f77b4"/>
   </g>
   <g id="patch_8">
    <path d="M 169.976534 846.496667 
L 174.258724 846.496667 
L 174.258724 353.90705 
L 169.976534 353.90705 
z
" clip-path="url(#p10aa2c0684)" style="fill: #1f77b4"/>
   </g>
   <g id="patch_9">
    <path d="M 187.105295 846.496667 
L 191.387485 846.496667 
L 191.387485 106.382817 
L 187.105295 106.382817 
z
" clip-path="url(#p10aa2c0684)" style="fill: #1f77b4"/>
   </g>
   <g id="patch_10">
    <path d="M 204.234056 846.496667 
L 208.516247 846.496667 
L 208.516247 39.17425 
L 204.234056 39.17425 
z
" clip-path="url(#p10aa2c0684)" style="fill: #1f77b4"/>
   </g>
   <g id="patch_11">
    <path d="M 221.362818 846.496667 
L 225.645008 846.496667 
L 225.645008 390.7898 
L 221.362818 390.7898 
z
" clip-path="url(#p10aa2c0684)" style="fill: #1f77b4"/>
   </g>
   <g id="patch_12">
    <path d="M 238.491579 846.496667 
L 242.773769 846.496667 
L 242.773769 213.7526 
L 238.491579 213.7526 
z
" clip-path="url(#p10aa2c0684)" style="fill: #1f77b4"/>
   </g>
   <g id="patch_13">
    <path d="M 255.62034 846.496667 
L 259.902531 846.496667 
L 259.902531 362.922833 
L 255.62034 362.922833 
z
" clip-path="url(#p10aa2c0684)" style="fill: #1f77b4"/>
   </g>
   <g id="patch_14">
    <path d="M 272.749102 846.496667 
L 277.031292 846.496667 
L 277.031292 375.217083 
L 272.749102 375.217083 
z
" clip-path="url(#p10aa2c0684)" style="fill: #1f77b4"/>
   </g>
   <g id="patch_15">
    <path d="M 289.877863 846.496667 
L 294.160053 846.496667 
L 294.160053 293.255417 
L 289.877863 293.255417 
z
" clip-path="url(#p10aa2c0684)" style="fill: #1f77b4"/>
   </g>
   <g id="patch_16">
    <path d="M 307.006624 846.496667 
L 311.288814 846.496667 
L 311.288814 366.2013 
L 307.006624 366.2013 
z
" clip-path="url(#p10aa2c0684)" style="fill: #1f77b4"/>
   </g>
   <g id="patch_17">
    <path d="M 324.135385 846.496667 
L 328.417576 846.496667 
L 328.417576 348.169733 
L 324.135385 348.169733 
z
" clip-path="url(#p10aa2c0684)" style="fill: #1f77b4"/>
   </g>
   <g id="patch_18">
    <path d="M 341.264147 846.496667 
L 345.546337 846.496667 
L 345.546337 436.688333 
L 341.264147 436.688333 
z
" clip-path="url(#p10aa2c0684)" style="fill: #1f77b4"/>
   </g>
   <g id="patch_19">
    <path d="M 358.392908 846.496667 
L 362.675098 846.496667 
L 362.675098 320.302767 
L 358.392908 320.302767 
z
" clip-path="url(#p10aa2c0684)" style="fill: #1f77b4"/>
   </g>
   <g id="patch_20">
    <path d="M 375.521669 846.496667 
L 379.80386 846.496667 
L 379.80386 280.961167 
L 375.521669 280.961167 
z
" clip-path="url(#p10aa2c0684)" style="fill: #1f77b4"/>
   </g>
   <g id="patch_21">
    <path d="M 392.650431 846.496667 
L 396.932621 846.496667 
L 396.932621 387.511333 
L 392.650431 387.511333 
z
" clip-path="url(#p10aa2c0684)" style="fill: #1f77b4"/>
   </g>
   <g id="patch_22">
    <path d="M 409.779192 846.496667 
L 414.061382 846.496667 
L 414.061382 329.31855 
L 409.779192 329.31855 
z
" clip-path="url(#p10aa2c0684)" style="fill: #1f77b4"/>
   </g>
   <g id="patch_23">
    <path d="M 426.907953 846.496667 
L 431.190144 846.496667 
L 431.190144 344.891267 
L 426.907953 344.891267 
z
" clip-path="url(#p10aa2c0684)" style="fill: #1f77b4"/>
   </g>
   <g id="patch_24">
    <path d="M 444.036715 846.496667 
L 448.318905 846.496667 
L 448.318905 231.784167 
L 444.036715 231.784167 
z
" clip-path="url(#p10aa2c0684)" style="fill: #1f77b4"/>
   </g>
   <g id="patch_25">
    <path d="M 461.165476 846.496667 
L 465.447666 846.496667 
L 465.447666 259.651133 
L 461.165476 259.651133 
z
" clip-path="url(#p10aa2c0684)" style="fill: #1f77b4"/>
   </g>
   <g id="patch_26">
    <path d="M 478.294237 846.496667 
L 482.576427 846.496667 
L 482.576427 161.297133 
L 478.294237 161.297133 
z
" clip-path="url(#p10aa2c0684)" style="fill: #1f77b4"/>
   </g>
   <g id="patch_27">
    <path d="M 495.422998 846.496667 
L 499.705189 846.496667 
L 499.705189 293.255417 
L 495.422998 293.255417 
z
" clip-path="url(#p10aa2c0684)" style="fill: #1f77b4"/>
   </g>
   <g id="patch_28">
    <path d="M 512.55176 846.496667 
L 516.83395 846.496667 
L 516.83395 280.961167 
L 512.55176 280.961167 
z
" clip-path="url(#p10aa2c0684)" style="fill: #1f77b4"/>
   </g>
   <g id="patch_29">
    <path d="M 529.680521 846.496667 
L 533.962711 846.496667 
L 533.962711 164.5756 
L 529.680521 164.5756 
z
" clip-path="url(#p10aa2c0684)" style="fill: #1f77b4"/>
   </g>
   <g id="patch_30">
    <path d="M 546.809282 846.496667 
L 551.091473 846.496667 
L 551.091473 353.90705 
L 546.809282 353.90705 
z
" clip-path="url(#p10aa2c0684)" style="fill: #1f77b4"/>
   </g>
   <g id="patch_31">
    <path d="M 563.938044 846.496667 
L 568.220234 846.496667 
L 568.220234 226.04685 
L 563.938044 226.04685 
z
" clip-path="url(#p10aa2c0684)" style="fill: #1f77b4"/>
   </g>
   <g id="patch_32">
    <path d="M 581.066805 846.496667 
L 585.348995 846.496667 
L 585.348995 378.49555 
L 581.066805 378.49555 
z
" clip-path="url(#p10aa2c0684)" style="fill: #1f77b4"/>
   </g>
   <g id="patch_33">
    <path d="M 598.195566 846.496667 
L 602.477757 846.496667 
L 602.477757 274.404233 
L 598.195566 274.404233 
z
" clip-path="url(#p10aa2c0684)" style="fill: #1f77b4"/>
   </g>
   <g id="patch_34">
    <path d="M 615.324327 846.496667 
L 619.606518 846.496667 
L 619.606518 387.511333 
L 615.324327 387.511333 
z
" clip-path="url(#p10aa2c0684)" style="fill: #1f77b4"/>
   </g>
   <g id="patch_35">
    <path d="M 632.453089 846.496667 
L 636.735279 846.496667 
L 636.735279 311.286983 
L 632.453089 311.286983 
z
" clip-path="url(#p10aa2c0684)" style="fill: #1f77b4"/>
   </g>
   <g id="patch_36">
    <path d="M 649.58185 846.496667 
L 653.86404 846.496667 
L 653.86404 194.901417 
L 649.58185 194.901417 
z
" clip-path="url(#p10aa2c0684)" style="fill: #1f77b4"/>
   </g>
   <g id="patch_37">
    <path d="M 666.710611 846.496667 
L 670.992802 846.496667 
L 670.992802 280.961167 
L 666.710611 280.961167 
z
" clip-path="url(#p10aa2c0684)" style="fill: #1f77b4"/>
   </g>
   <g id="patch_38">
    <path d="M 683.839373 846.496667 
L 688.121563 846.496667 
L 688.121563 408.821367 
L 683.839373 408.821367 
z
" clip-path="url(#p10aa2c0684)" style="fill: #1f77b4"/>
   </g>
   <g id="patch_39">
    <path d="M 700.968134 846.496667 
L 705.250324 846.496667 
L 705.250324 226.04685 
L 700.968134 226.04685 
z
" clip-path="url(#p10aa2c0684)" style="fill: #1f77b4"/>
   </g>
   <g id="patch_40">
    <path d="M 718.096895 846.496667 
L 722.379086 846.496667 
L 722.379086 176.86985 
L 718.096895 176.86985 
z
" clip-path="url(#p10aa2c0684)" style="fill: #1f77b4"/>
   </g>
   <g id="patch_41">
    <path d="M 735.225657 846.496667 
L 739.507847 846.496667 
L 739.507847 173.591383 
L 735.225657 173.591383 
z
" clip-path="url(#p10aa2c0684)" style="fill: #1f77b4"/>
   </g>
   <g id="patch_42">
    <path d="M 752.354418 846.496667 
L 756.636608 846.496667 
L 756.636608 351.4482 
L 752.354418 351.4482 
z
" clip-path="url(#p10aa2c0684)" style="fill: #1f77b4"/>
   </g>
   <g id="patch_43">
    <path d="M 769.483179 846.496667 
L 773.765369 846.496667 
L 773.765369 124.414383 
L 769.483179 124.414383 
z
" clip-path="url(#p10aa2c0684)" style="fill: #1f77b4"/>
   </g>
   <g id="patch_44">
    <path d="M 786.61194 846.496667 
L 790.894131 846.496667 
L 790.894131 222.768383 
L 786.61194 222.768383 
z
" clip-path="url(#p10aa2c0684)" style="fill: #1f77b4"/>
   </g>
   <g id="patch_45">
    <path d="M 803.740702 846.496667 
L 808.022892 846.496667 
L 808.022892 326.8597 
L 803.740702 326.8597 
z
" clip-path="url(#p10aa2c0684)" style="fill: #1f77b4"/>
   </g>
   <g id="patch_46">
    <path d="M 88.614918 846.496667 
L 92.897108 846.496667 
L 92.897108 338.334333 
L 88.614918 338.334333 
z
" clip-path="url(#p10aa2c0684)" style="fill: #ff7f0e"/>
   </g>
   <g id="patch_47">
    <path d="M 105.743679 846.496667 
L 110.025869 846.496667 
L 110.025869 321.942 
L 105.743679 321.942 
z
" clip-path="url(#p10aa2c0684)" style="fill: #ff7f0e"/>
   </g>
   <g id="patch_48">
    <path d="M 122.87244 846.496667 
L 127.154631 846.496667 
L 127.154631 305.549667 
L 122.87244 305.549667 
z
" clip-path="url(#p10aa2c0684)" style="fill: #ff7f0e"/>
   </g>
   <g id="patch_49">
    <path d="M 140.001201 846.496667 
L 144.283392 846.496667 
L 144.283392 289.157333 
L 140.001201 289.157333 
z
" clip-path="url(#p10aa2c0684)" style="fill: #ff7f0e"/>
   </g>
   <g id="patch_50">
    <path d="M 157.129963 846.496667 
L 161.412153 846.496667 
L 161.412153 412.099833 
L 157.129963 412.099833 
z
" clip-path="url(#p10aa2c0684)" style="fill: #ff7f0e"/>
   </g>
   <g id="patch_51">
    <path d="M 174.258724 846.496667 
L 178.540914 846.496667 
L 178.540914 395.7075 
L 174.258724 395.7075 
z
" clip-path="url(#p10aa2c0684)" style="fill: #ff7f0e"/>
   </g>
   <g id="patch_52">
    <path d="M 191.387485 846.496667 
L 195.669676 846.496667 
L 195.669676 133.430167 
L 191.387485 133.430167 
z
" clip-path="url(#p10aa2c0684)" style="fill: #ff7f0e"/>
   </g>
   <g id="patch_53">
    <path d="M 208.516247 846.496667 
L 212.798437 846.496667 
L 212.798437 51.4685 
L 208.516247 51.4685 
z
" clip-path="url(#p10aa2c0684)" style="fill: #ff7f0e"/>
   </g>
   <g id="patch_54">
    <path d="M 225.645008 846.496667 
L 229.927198 846.496667 
L 229.927198 330.138167 
L 225.645008 330.138167 
z
" clip-path="url(#p10aa2c0684)" style="fill: #ff7f0e"/>
   </g>
   <g id="patch_55">
    <path d="M 242.773769 846.496667 
L 247.05596 846.496667 
L 247.05596 387.511333 
L 242.773769 387.511333 
z
" clip-path="url(#p10aa2c0684)" style="fill: #ff7f0e"/>
   </g>
   <g id="patch_56">
    <path d="M 259.902531 846.496667 
L 264.184721 846.496667 
L 264.184721 387.511333 
L 259.902531 387.511333 
z
" clip-path="url(#p10aa2c0684)" style="fill: #ff7f0e"/>
   </g>
   <g id="patch_57">
    <path d="M 277.031292 846.496667 
L 281.313482 846.496667 
L 281.313482 256.372667 
L 277.031292 256.372667 
z
" clip-path="url(#p10aa2c0684)" style="fill: #ff7f0e"/>
   </g>
   <g id="patch_58">
    <path d="M 294.160053 846.496667 
L 298.442243 846.496667 
L 298.442243 362.922833 
L 294.160053 362.922833 
z
" clip-path="url(#p10aa2c0684)" style="fill: #ff7f0e"/>
   </g>
   <g id="patch_59">
    <path d="M 311.288814 846.496667 
L 315.571005 846.496667 
L 315.571005 436.688333 
L 311.288814 436.688333 
z
" clip-path="url(#p10aa2c0684)" style="fill: #ff7f0e"/>
   </g>
   <g id="patch_60">
    <path d="M 328.417576 846.496667 
L 332.699766 846.496667 
L 332.699766 289.157333 
L 328.417576 289.157333 
z
" clip-path="url(#p10aa2c0684)" style="fill: #ff7f0e"/>
   </g>
   <g id="patch_61">
    <path d="M 345.546337 846.496667 
L 349.828527 846.496667 
L 349.828527 330.138167 
L 345.546337 330.138167 
z
" clip-path="url(#p10aa2c0684)" style="fill: #ff7f0e"/>
   </g>
   <g id="patch_62">
    <path d="M 362.675098 846.496667 
L 366.957289 846.496667 
L 366.957289 387.511333 
L 362.675098 387.511333 
z
" clip-path="url(#p10aa2c0684)" style="fill: #ff7f0e"/>
   </g>
   <g id="patch_63">
    <path d="M 379.80386 846.496667 
L 384.08605 846.496667 
L 384.08605 330.138167 
L 379.80386 330.138167 
z
" clip-path="url(#p10aa2c0684)" style="fill: #ff7f0e"/>
   </g>
   <g id="patch_64">
    <path d="M 396.932621 846.496667 
L 401.214811 846.496667 
L 401.214811 387.511333 
L 396.932621 387.511333 
z
" clip-path="url(#p10aa2c0684)" style="fill: #ff7f0e"/>
   </g>
   <g id="patch_65">
    <path d="M 414.061382 846.496667 
L 418.343573 846.496667 
L 418.343573 379.315167 
L 414.061382 379.315167 
z
" clip-path="url(#p10aa2c0684)" style="fill: #ff7f0e"/>
   </g>
   <g id="patch_66">
    <path d="M 431.190144 846.496667 
L 435.472334 846.496667 
L 435.472334 379.315167 
L 431.190144 379.315167 
z
" clip-path="url(#p10aa2c0684)" style="fill: #ff7f0e"/>
   </g>
   <g id="patch_67">
    <path d="M 448.318905 846.496667 
L 452.601095 846.496667 
L 452.601095 387.511333 
L 448.318905 387.511333 
z
" clip-path="url(#p10aa2c0684)" style="fill: #ff7f0e"/>
   </g>
   <g id="patch_68">
    <path d="M 465.447666 846.496667 
L 469.729856 846.496667 
L 469.729856 305.549667 
L 465.447666 305.549667 
z
" clip-path="url(#p10aa2c0684)" style="fill: #ff7f0e"/>
   </g>
   <g id="patch_69">
    <path d="M 482.576427 846.496667 
L 486.858618 846.496667 
L 486.858618 141.626333 
L 482.576427 141.626333 
z
" clip-path="url(#p10aa2c0684)" style="fill: #ff7f0e"/>
   </g>
   <g id="patch_70">
    <path d="M 499.705189 846.496667 
L 503.987379 846.496667 
L 503.987379 354.726667 
L 499.705189 354.726667 
z
" clip-path="url(#p10aa2c0684)" style="fill: #ff7f0e"/>
   </g>
   <g id="patch_71">
    <path d="M 516.83395 846.496667 
L 521.11614 846.496667 
L 521.11614 362.922833 
L 516.83395 362.922833 
z
" clip-path="url(#p10aa2c0684)" style="fill: #ff7f0e"/>
   </g>
   <g id="patch_72">
    <path d="M 533.962711 846.496667 
L 538.244902 846.496667 
L 538.244902 223.588 
L 533.962711 223.588 
z
" clip-path="url(#p10aa2c0684)" style="fill: #ff7f0e"/>
   </g>
   <g id="patch_73">
    <path d="M 551.091473 846.496667 
L 555.373663 846.496667 
L 555.373663 436.688333 
L 551.091473 436.688333 
z
" clip-path="url(#p10aa2c0684)" style="fill: #ff7f0e"/>
   </g>
   <g id="patch_74">
    <path d="M 568.220234 846.496667 
L 572.502424 846.496667 
L 572.502424 338.334333 
L 568.220234 338.334333 
z
" clip-path="url(#p10aa2c0684)" style="fill: #ff7f0e"/>
   </g>
   <g id="patch_75">
    <path d="M 585.348995 846.496667 
L 589.631186 846.496667 
L 589.631186 354.726667 
L 585.348995 354.726667 
z
" clip-path="url(#p10aa2c0684)" style="fill: #ff7f0e"/>
   </g>
   <g id="patch_76">
    <path d="M 602.477757 846.496667 
L 606.759947 846.496667 
L 606.759947 379.315167 
L 602.477757 379.315167 
z
" clip-path="url(#p10aa2c0684)" style="fill: #ff7f0e"/>
   </g>
   <g id="patch_77">
    <path d="M 619.606518 846.496667 
L 623.888708 846.496667 
L 623.888708 412.099833 
L 619.606518 412.099833 
z
" clip-path="url(#p10aa2c0684)" style="fill: #ff7f0e"/>
   </g>
   <g id="patch_78">
    <path d="M 636.735279 846.496667 
L 641.017469 846.496667 
L 641.017469 272.765 
L 636.735279 272.765 
z
" clip-path="url(#p10aa2c0684)" style="fill: #ff7f0e"/>
   </g>
   <g id="patch_79">
    <path d="M 653.86404 846.496667 
L 658.146231 846.496667 
L 658.146231 313.745833 
L 653.86404 313.745833 
z
" clip-path="url(#p10aa2c0684)" style="fill: #ff7f0e"/>
   </g>
   <g id="patch_80">
    <path d="M 670.992802 846.496667 
L 675.274992 846.496667 
L 675.274992 371.119 
L 670.992802 371.119 
z
" clip-path="url(#p10aa2c0684)" style="fill: #ff7f0e"/>
   </g>
   <g id="patch_81">
    <path d="M 688.121563 846.496667 
L 692.403753 846.496667 
L 692.403753 362.922833 
L 688.121563 362.922833 
z
" clip-path="url(#p10aa2c0684)" style="fill: #ff7f0e"/>
   </g>
   <g id="patch_82">
    <path d="M 705.250324 846.496667 
L 709.532515 846.496667 
L 709.532515 289.157333 
L 705.250324 289.157333 
z
" clip-path="url(#p10aa2c0684)" style="fill: #ff7f0e"/>
   </g>
   <g id="patch_83">
    <path d="M 722.379086 846.496667 
L 726.661276 846.496667 
L 726.661276 412.099833 
L 722.379086 412.099833 
z
" clip-path="url(#p10aa2c0684)" style="fill: #ff7f0e"/>
   </g>
   <g id="patch_84">
    <path d="M 739.507847 846.496667 
L 743.790037 846.496667 
L 743.790037 395.7075 
L 739.507847 395.7075 
z
" clip-path="url(#p10aa2c0684)" style="fill: #ff7f0e"/>
   </g>
   <g id="patch_85">
    <path d="M 756.636608 846.496667 
L 760.918799 846.496667 
L 760.918799 338.334333 
L 756.636608 338.334333 
z
" clip-path="url(#p10aa2c0684)" style="fill: #ff7f0e"/>
   </g>
   <g id="patch_86">
    <path d="M 773.765369 846.496667 
L 778.04756 846.496667 
L 778.04756 330.138167 
L 773.765369 330.138167 
z
" clip-path="url(#p10aa2c0684)" style="fill: #ff7f0e"/>
   </g>
   <g id="patch_87">
    <path d="M 790.894131 846.496667 
L 795.176321 846.496667 
L 795.176321 354.726667 
L 790.894131 354.726667 
z
" clip-path="url(#p10aa2c0684)" style="fill: #ff7f0e"/>
   </g>
   <g id="patch_88">
    <path d="M 808.022892 846.496667 
L 812.305082 846.496667 
L 812.305082 371.119 
L 808.022892 371.119 
z
" clip-path="url(#p10aa2c0684)" style="fill: #ff7f0e"/>
   </g>
   <g id="patch_89">
    <path d="M 92.897108 846.496667 
L 97.179298 846.496667 
L 97.179298 338.334333 
L 92.897108 338.334333 
z
" clip-path="url(#p10aa2c0684)" style="fill: #2ca02c"/>
   </g>
   <g id="patch_90">
    <path d="M 110.025869 846.496667 
L 114.30806 846.496667 
L 114.30806 395.7075 
L 110.025869 395.7075 
z
" clip-path="url(#p10aa2c0684)" style="fill: #2ca02c"/>
   </g>
   <g id="patch_91">
    <path d="M 127.154631 846.496667 
L 131.436821 846.496667 
L 131.436821 346.5305 
L 127.154631 346.5305 
z
" clip-path="url(#p10aa2c0684)" style="fill: #2ca02c"/>
   </g>
   <g id="patch_92">
    <path d="M 144.283392 846.496667 
L 148.565582 846.496667 
L 148.565582 338.334333 
L 144.283392 338.334333 
z
" clip-path="url(#p10aa2c0684)" style="fill: #2ca02c"/>
   </g>
   <g id="patch_93">
    <path d="M 161.412153 846.496667 
L 165.694343 846.496667 
L 165.694343 387.511333 
L 161.412153 387.511333 
z
" clip-path="url(#p10aa2c0684)" style="fill: #2ca02c"/>
   </g>
   <g id="patch_94">
    <path d="M 178.540914 846.496667 
L 182.823105 846.496667 
L 182.823105 379.315167 
L 178.540914 379.315167 
z
" clip-path="url(#p10aa2c0684)" style="fill: #2ca02c"/>
   </g>
   <g id="patch_95">
    <path d="M 195.669676 846.496667 
L 199.951866 846.496667 
L 199.951866 125.234 
L 195.669676 125.234 
z
" clip-path="url(#p10aa2c0684)" style="fill: #2ca02c"/>
   </g>
   <g id="patch_96">
    <path d="M 212.798437 846.496667 
L 217.080627 846.496667 
L 217.080627 76.057 
L 212.798437 76.057 
z
" clip-path="url(#p10aa2c0684)" style="fill: #2ca02c"/>
   </g>
   <g id="patch_97">
    <path d="M 229.927198 846.496667 
L 234.209389 846.496667 
L 234.209389 354.726667 
L 229.927198 354.726667 
z
" clip-path="url(#p10aa2c0684)" style="fill: #2ca02c"/>
   </g>
   <g id="patch_98">
    <path d="M 247.05596 846.496667 
L 251.33815 846.496667 
L 251.33815 248.1765 
L 247.05596 248.1765 
z
" clip-path="url(#p10aa2c0684)" style="fill: #2ca02c"/>
   </g>
   <g id="patch_99">
    <path d="M 264.184721 846.496667 
L 268.466911 846.496667 
L 268.466911 395.7075 
L 264.184721 395.7075 
z
" clip-path="url(#p10aa2c0684)" style="fill: #2ca02c"/>
   </g>
   <g id="patch_100">
    <path d="M 281.313482 846.496667 
L 285.595673 846.496667 
L 285.595673 223.588 
L 281.313482 223.588 
z
" clip-path="url(#p10aa2c0684)" style="fill: #2ca02c"/>
   </g>
   <g id="patch_101">
    <path d="M 298.442243 846.496667 
L 302.724434 846.496667 
L 302.724434 362.922833 
L 298.442243 362.922833 
z
" clip-path="url(#p10aa2c0684)" style="fill: #2ca02c"/>
   </g>
   <g id="patch_102">
    <path d="M 315.571005 846.496667 
L 319.853195 846.496667 
L 319.853195 428.492167 
L 315.571005 428.492167 
z
" clip-path="url(#p10aa2c0684)" style="fill: #2ca02c"/>
   </g>
   <g id="patch_103">
    <path d="M 332.699766 846.496667 
L 336.981956 846.496667 
L 336.981956 330.138167 
L 332.699766 330.138167 
z
" clip-path="url(#p10aa2c0684)" style="fill: #2ca02c"/>
   </g>
   <g id="patch_104">
    <path d="M 349.828527 846.496667 
L 354.110718 846.496667 
L 354.110718 346.5305 
L 349.828527 346.5305 
z
" clip-path="url(#p10aa2c0684)" style="fill: #2ca02c"/>
   </g>
   <g id="patch_105">
    <path d="M 366.957289 846.496667 
L 371.239479 846.496667 
L 371.239479 330.138167 
L 366.957289 330.138167 
z
" clip-path="url(#p10aa2c0684)" style="fill: #2ca02c"/>
   </g>
   <g id="patch_106">
    <path d="M 384.08605 846.496667 
L 388.36824 846.496667 
L 388.36824 264.568833 
L 384.08605 264.568833 
z
" clip-path="url(#p10aa2c0684)" style="fill: #2ca02c"/>
   </g>
   <g id="patch_107">
    <path d="M 401.214811 846.496667 
L 405.497002 846.496667 
L 405.497002 330.138167 
L 401.214811 330.138167 
z
" clip-path="url(#p10aa2c0684)" style="fill: #2ca02c"/>
   </g>
   <g id="patch_108">
    <path d="M 418.343573 846.496667 
L 422.625763 846.496667 
L 422.625763 403.903667 
L 418.343573 403.903667 
z
" clip-path="url(#p10aa2c0684)" style="fill: #2ca02c"/>
   </g>
   <g id="patch_109">
    <path d="M 435.472334 846.496667 
L 439.754524 846.496667 
L 439.754524 346.5305 
L 435.472334 346.5305 
z
" clip-path="url(#p10aa2c0684)" style="fill: #2ca02c"/>
   </g>
   <g id="patch_110">
    <path d="M 452.601095 846.496667 
L 456.883285 846.496667 
L 456.883285 379.315167 
L 452.601095 379.315167 
z
" clip-path="url(#p10aa2c0684)" style="fill: #2ca02c"/>
   </g>
   <g id="patch_111">
    <path d="M 469.729856 846.496667 
L 474.012047 846.496667 
L 474.012047 338.334333 
L 469.729856 338.334333 
z
" clip-path="url(#p10aa2c0684)" style="fill: #2ca02c"/>
   </g>
   <g id="patch_112">
    <path d="M 486.858618 846.496667 
L 491.140808 846.496667 
L 491.140808 133.430167 
L 486.858618 133.430167 
z
" clip-path="url(#p10aa2c0684)" style="fill: #2ca02c"/>
   </g>
   <g id="patch_113">
    <path d="M 503.987379 846.496667 
L 508.269569 846.496667 
L 508.269569 321.942 
L 503.987379 321.942 
z
" clip-path="url(#p10aa2c0684)" style="fill: #2ca02c"/>
   </g>
   <g id="patch_114">
    <path d="M 521.11614 846.496667 
L 525.398331 846.496667 
L 525.398331 387.511333 
L 521.11614 387.511333 
z
" clip-path="url(#p10aa2c0684)" style="fill: #2ca02c"/>
   </g>
   <g id="patch_115">
    <path d="M 538.244902 846.496667 
L 542.527092 846.496667 
L 542.527092 297.3535 
L 538.244902 297.3535 
z
" clip-path="url(#p10aa2c0684)" style="fill: #2ca02c"/>
   </g>
   <g id="patch_116">
    <path d="M 555.373663 846.496667 
L 559.655853 846.496667 
L 559.655853 436.688333 
L 555.373663 436.688333 
z
" clip-path="url(#p10aa2c0684)" style="fill: #2ca02c"/>
   </g>
   <g id="patch_117">
    <path d="M 572.502424 846.496667 
L 576.784615 846.496667 
L 576.784615 297.3535 
L 572.502424 297.3535 
z
" clip-path="url(#p10aa2c0684)" style="fill: #2ca02c"/>
   </g>
   <g id="patch_118">
    <path d="M 589.631186 846.496667 
L 593.913376 846.496667 
L 593.913376 346.5305 
L 589.631186 346.5305 
z
" clip-path="url(#p10aa2c0684)" style="fill: #2ca02c"/>
   </g>
   <g id="patch_119">
    <path d="M 606.759947 846.496667 
L 611.042137 846.496667 
L 611.042137 346.5305 
L 606.759947 346.5305 
z
" clip-path="url(#p10aa2c0684)" style="fill: #2ca02c"/>
   </g>
   <g id="patch_120">
    <path d="M 623.888708 846.496667 
L 628.170898 846.496667 
L 628.170898 379.315167 
L 623.888708 379.315167 
z
" clip-path="url(#p10aa2c0684)" style="fill: #2ca02c"/>
   </g>
   <g id="patch_121">
    <path d="M 641.017469 846.496667 
L 645.29966 846.496667 
L 645.29966 272.765 
L 641.017469 272.765 
z
" clip-path="url(#p10aa2c0684)" style="fill: #2ca02c"/>
   </g>
   <g id="patch_122">
    <path d="M 658.146231 846.496667 
L 662.428421 846.496667 
L 662.428421 379.315167 
L 658.146231 379.315167 
z
" clip-path="url(#p10aa2c0684)" style="fill: #2ca02c"/>
   </g>
   <g id="patch_123">
    <path d="M 675.274992 846.496667 
L 679.557182 846.496667 
L 679.557182 362.922833 
L 675.274992 362.922833 
z
" clip-path="url(#p10aa2c0684)" style="fill: #2ca02c"/>
   </g>
   <g id="patch_124">
    <path d="M 692.403753 846.496667 
L 696.685944 846.496667 
L 696.685944 313.745833 
L 692.403753 313.745833 
z
" clip-path="url(#p10aa2c0684)" style="fill: #2ca02c"/>
   </g>
   <g id="patch_125">
    <path d="M 709.532515 846.496667 
L 713.814705 846.496667 
L 713.814705 330.138167 
L 709.532515 330.138167 
z
" clip-path="url(#p10aa2c0684)" style="fill: #2ca02c"/>
   </g>
   <g id="patch_126">
    <path d="M 726.661276 846.496667 
L 730.943466 846.496667 
L 730.943466 420.296 
L 726.661276 420.296 
z
" clip-path="url(#p10aa2c0684)" style="fill: #2ca02c"/>
   </g>
   <g id="patch_127">
    <path d="M 743.790037 846.496667 
L 748.072228 846.496667 
L 748.072228 330.138167 
L 743.790037 330.138167 
z
" clip-path="url(#p10aa2c0684)" style="fill: #2ca02c"/>
   </g>
   <g id="patch_128">
    <path d="M 760.918799 846.496667 
L 765.200989 846.496667 
L 765.200989 395.7075 
L 760.918799 395.7075 
z
" clip-path="url(#p10aa2c0684)" style="fill: #2ca02c"/>
   </g>
   <g id="patch_129">
    <path d="M 778.04756 846.496667 
L 782.32975 846.496667 
L 782.32975 379.315167 
L 778.04756 379.315167 
z
" clip-path="url(#p10aa2c0684)" style="fill: #2ca02c"/>
   </g>
   <g id="patch_130">
    <path d="M 795.176321 846.496667 
L 799.458511 846.496667 
L 799.458511 321.942 
L 795.176321 321.942 
z
" clip-path="url(#p10aa2c0684)" style="fill: #2ca02c"/>
   </g>
   <g id="patch_131">
    <path d="M 812.305082 846.496667 
L 816.587273 846.496667 
L 816.587273 412.099833 
L 812.305082 412.099833 
z
" clip-path="url(#p10aa2c0684)" style="fill: #2ca02c"/>
   </g>
   <g id="matplotlib.axis_1">
    <g id="xtick_1">
     <g id="line2d_8">
      <defs>
       <path id="m22b75b4839" d="M 0 0 
L 0 3.5 
" style="stroke: #000000; stroke-width: 0.8"/>
      </defs>
      <g>
       <use xlink:href="#m22b75b4839" x="90.756013" y="518.65" style="stroke: #000000; stroke-width: 0.8"/>
      </g>
     </g>
     <g id="text_1">
      <!-- 50 -->
      <g transform="translate(93.515388 538.375) rotate(-90) scale(0.1 -0.1)">
       <defs>
        <path id="DejaVuSans-35" d="M 691 4666 
L 3169 4666 
L 3169 4134 
L 1269 4134 
L 1269 2991 
Q 1406 3038 1543 3061 
Q 1681 3084 1819 3084 
Q 2600 3084 3056 2656 
Q 3513 2228 3513 1497 
Q 3513 744 3044 326 
Q 2575 -91 1722 -91 
Q 1428 -91 1123 -41 
Q 819 9 494 109 
L 494 744 
Q 775 591 1075 516 
Q 1375 441 1709 441 
Q 2250 441 2565 725 
Q 2881 1009 2881 1497 
Q 2881 1984 2565 2268 
Q 2250 2553 1709 2553 
Q 1456 2553 1204 2497 
Q 953 2441 691 2322 
L 691 4666 
z
" transform="scale(0.015625)"/>
        <path id="DejaVuSans-30" d="M 2034 4250 
Q 1547 4250 1301 3770 
Q 1056 3291 1056 2328 
Q 1056 1369 1301 889 
Q 1547 409 2034 409 
Q 2525 409 2770 889 
Q 3016 1369 3016 2328 
Q 3016 3291 2770 3770 
Q 2525 4250 2034 4250 
z
M 2034 4750 
Q 2819 4750 3233 4129 
Q 3647 3509 3647 2328 
Q 3647 1150 3233 529 
Q 2819 -91 2034 -91 
Q 1250 -91 836 529 
Q 422 1150 422 2328 
Q 422 3509 836 4129 
Q 1250 4750 2034 4750 
z
" transform="scale(0.015625)"/>
       </defs>
       <use xlink:href="#DejaVuSans-35"/>
       <use xlink:href="#DejaVuSans-30" x="63.623047"/>
      </g>
     </g>
    </g>
    <g id="xtick_2">
     <g id="line2d_9">
      <g>
       <use xlink:href="#m22b75b4839" x="107.884774" y="518.65" style="stroke: #000000; stroke-width: 0.8"/>
      </g>
     </g>
     <g id="text_2">
      <!-- 63 -->
      <g transform="translate(110.644149 538.375) rotate(-90) scale(0.1 -0.1)">
       <defs>
        <path id="DejaVuSans-36" d="M 2113 2584 
Q 1688 2584 1439 2293 
Q 1191 2003 1191 1497 
Q 1191 994 1439 701 
Q 1688 409 2113 409 
Q 2538 409 2786 701 
Q 3034 994 3034 1497 
Q 3034 2003 2786 2293 
Q 2538 2584 2113 2584 
z
M 3366 4563 
L 3366 3988 
Q 3128 4100 2886 4159 
Q 2644 4219 2406 4219 
Q 1781 4219 1451 3797 
Q 1122 3375 1075 2522 
Q 1259 2794 1537 2939 
Q 1816 3084 2150 3084 
Q 2853 3084 3261 2657 
Q 3669 2231 3669 1497 
Q 3669 778 3244 343 
Q 2819 -91 2113 -91 
Q 1303 -91 875 529 
Q 447 1150 447 2328 
Q 447 3434 972 4092 
Q 1497 4750 2381 4750 
Q 2619 4750 2861 4703 
Q 3103 4656 3366 4563 
z
" transform="scale(0.015625)"/>
        <path id="DejaVuSans-33" d="M 2597 2516 
Q 3050 2419 3304 2112 
Q 3559 1806 3559 1356 
Q 3559 666 3084 287 
Q 2609 -91 1734 -91 
Q 1441 -91 1130 -33 
Q 819 25 488 141 
L 488 750 
Q 750 597 1062 519 
Q 1375 441 1716 441 
Q 2309 441 2620 675 
Q 2931 909 2931 1356 
Q 2931 1769 2642 2001 
Q 2353 2234 1838 2234 
L 1294 2234 
L 1294 2753 
L 1863 2753 
Q 2328 2753 2575 2939 
Q 2822 3125 2822 3475 
Q 2822 3834 2567 4026 
Q 2313 4219 1838 4219 
Q 1578 4219 1281 4162 
Q 984 4106 628 3988 
L 628 4550 
Q 988 4650 1302 4700 
Q 1616 4750 1894 4750 
Q 2613 4750 3031 4423 
Q 3450 4097 3450 3541 
Q 3450 3153 3228 2886 
Q 3006 2619 2597 2516 
z
" transform="scale(0.015625)"/>
       </defs>
       <use xlink:href="#DejaVuSans-36"/>
       <use xlink:href="#DejaVuSans-33" x="63.623047"/>
      </g>
     </g>
    </g>
    <g id="xtick_3">
     <g id="line2d_10">
      <g>
       <use xlink:href="#m22b75b4839" x="125.013535" y="518.65" style="stroke: #000000; stroke-width: 0.8"/>
      </g>
     </g>
     <g id="text_3">
      <!-- 195 -->
      <g transform="translate(127.77291 544.7375) rotate(-90) scale(0.1 -0.1)">
       <defs>
        <path id="DejaVuSans-31" d="M 794 531 
L 1825 531 
L 1825 4091 
L 703 3866 
L 703 4441 
L 1819 4666 
L 2450 4666 
L 2450 531 
L 3481 531 
L 3481 0 
L 794 0 
L 794 531 
z
" transform="scale(0.015625)"/>
        <path id="DejaVuSans-39" d="M 703 97 
L 703 672 
Q 941 559 1184 500 
Q 1428 441 1663 441 
Q 2288 441 2617 861 
Q 2947 1281 2994 2138 
Q 2813 1869 2534 1725 
Q 2256 1581 1919 1581 
Q 1219 1581 811 2004 
Q 403 2428 403 3163 
Q 403 3881 828 4315 
Q 1253 4750 1959 4750 
Q 2769 4750 3195 4129 
Q 3622 3509 3622 2328 
Q 3622 1225 3098 567 
Q 2575 -91 1691 -91 
Q 1453 -91 1209 -44 
Q 966 3 703 97 
z
M 1959 2075 
Q 2384 2075 2632 2365 
Q 2881 2656 2881 3163 
Q 2881 3666 2632 3958 
Q 2384 4250 1959 4250 
Q 1534 4250 1286 3958 
Q 1038 3666 1038 3163 
Q 1038 2656 1286 2365 
Q 1534 2075 1959 2075 
z
" transform="scale(0.015625)"/>
       </defs>
       <use xlink:href="#DejaVuSans-31"/>
       <use xlink:href="#DejaVuSans-39" x="63.623047"/>
       <use xlink:href="#DejaVuSans-35" x="127.246094"/>
      </g>
     </g>
    </g>
    <g id="xtick_4">
     <g id="line2d_11">
      <g>
       <use xlink:href="#m22b75b4839" x="142.142297" y="518.65" style="stroke: #000000; stroke-width: 0.8"/>
      </g>
     </g>
     <g id="text_4">
      <!-- 292 -->
      <g transform="translate(144.901672 544.7375) rotate(-90) scale(0.1 -0.1)">
       <defs>
        <path id="DejaVuSans-32" d="M 1228 531 
L 3431 531 
L 3431 0 
L 469 0 
L 469 531 
Q 828 903 1448 1529 
Q 2069 2156 2228 2338 
Q 2531 2678 2651 2914 
Q 2772 3150 2772 3378 
Q 2772 3750 2511 3984 
Q 2250 4219 1831 4219 
Q 1534 4219 1204 4116 
Q 875 4013 500 3803 
L 500 4441 
Q 881 4594 1212 4672 
Q 1544 4750 1819 4750 
Q 2544 4750 2975 4387 
Q 3406 4025 3406 3419 
Q 3406 3131 3298 2873 
Q 3191 2616 2906 2266 
Q 2828 2175 2409 1742 
Q 1991 1309 1228 531 
z
" transform="scale(0.015625)"/>
       </defs>
       <use xlink:href="#DejaVuSans-32"/>
       <use xlink:href="#DejaVuSans-39" x="63.623047"/>
       <use xlink:href="#DejaVuSans-32" x="127.246094"/>
      </g>
     </g>
    </g>
    <g id="xtick_5">
     <g id="line2d_12">
      <g>
       <use xlink:href="#m22b75b4839" x="159.271058" y="518.65" style="stroke: #000000; stroke-width: 0.8"/>
      </g>
     </g>
     <g id="text_5">
      <!-- 305 -->
      <g transform="translate(162.030433 544.7375) rotate(-90) scale(0.1 -0.1)">
       <use xlink:href="#DejaVuSans-33"/>
       <use xlink:href="#DejaVuSans-30" x="63.623047"/>
       <use xlink:href="#DejaVuSans-35" x="127.246094"/>
      </g>
     </g>
    </g>
    <g id="xtick_6">
     <g id="line2d_13">
      <g>
       <use xlink:href="#m22b75b4839" x="176.399819" y="518.65" style="stroke: #000000; stroke-width: 0.8"/>
      </g>
     </g>
     <g id="text_6">
      <!-- 372 -->
      <g transform="translate(179.159194 544.7375) rotate(-90) scale(0.1 -0.1)">
       <defs>
        <path id="DejaVuSans-37" d="M 525 4666 
L 3525 4666 
L 3525 4397 
L 1831 0 
L 1172 0 
L 2766 4134 
L 525 4134 
L 525 4666 
z
" transform="scale(0.015625)"/>
       </defs>
       <use xlink:href="#DejaVuSans-33"/>
       <use xlink:href="#DejaVuSans-37" x="63.623047"/>
       <use xlink:href="#DejaVuSans-32" x="127.246094"/>
      </g>
     </g>
    </g>
    <g id="xtick_7">
     <g id="line2d_14">
      <g>
       <use xlink:href="#m22b75b4839" x="193.528581" y="518.65" style="stroke: #000000; stroke-width: 0.8"/>
      </g>
     </g>
     <g id="text_7">
      <!-- 380 -->
      <g transform="translate(196.287956 544.7375) rotate(-90) scale(0.1 -0.1)">
       <defs>
        <path id="DejaVuSans-38" d="M 2034 2216 
Q 1584 2216 1326 1975 
Q 1069 1734 1069 1313 
Q 1069 891 1326 650 
Q 1584 409 2034 409 
Q 2484 409 2743 651 
Q 3003 894 3003 1313 
Q 3003 1734 2745 1975 
Q 2488 2216 2034 2216 
z
M 1403 2484 
Q 997 2584 770 2862 
Q 544 3141 544 3541 
Q 544 4100 942 4425 
Q 1341 4750 2034 4750 
Q 2731 4750 3128 4425 
Q 3525 4100 3525 3541 
Q 3525 3141 3298 2862 
Q 3072 2584 2669 2484 
Q 3125 2378 3379 2068 
Q 3634 1759 3634 1313 
Q 3634 634 3220 271 
Q 2806 -91 2034 -91 
Q 1263 -91 848 271 
Q 434 634 434 1313 
Q 434 1759 690 2068 
Q 947 2378 1403 2484 
z
M 1172 3481 
Q 1172 3119 1398 2916 
Q 1625 2713 2034 2713 
Q 2441 2713 2670 2916 
Q 2900 3119 2900 3481 
Q 2900 3844 2670 4047 
Q 2441 4250 2034 4250 
Q 1625 4250 1398 4047 
Q 1172 3844 1172 3481 
z
" transform="scale(0.015625)"/>
       </defs>
       <use xlink:href="#DejaVuSans-33"/>
       <use xlink:href="#DejaVuSans-38" x="63.623047"/>
       <use xlink:href="#DejaVuSans-30" x="127.246094"/>
      </g>
     </g>
    </g>
    <g id="xtick_8">
     <g id="line2d_15">
      <g>
       <use xlink:href="#m22b75b4839" x="210.657342" y="518.65" style="stroke: #000000; stroke-width: 0.8"/>
      </g>
     </g>
     <g id="text_8">
      <!-- 405 -->
      <g transform="translate(213.416717 544.7375) rotate(-90) scale(0.1 -0.1)">
       <defs>
        <path id="DejaVuSans-34" d="M 2419 4116 
L 825 1625 
L 2419 1625 
L 2419 4116 
z
M 2253 4666 
L 3047 4666 
L 3047 1625 
L 3713 1625 
L 3713 1100 
L 3047 1100 
L 3047 0 
L 2419 0 
L 2419 1100 
L 313 1100 
L 313 1709 
L 2253 4666 
z
" transform="scale(0.015625)"/>
       </defs>
       <use xlink:href="#DejaVuSans-34"/>
       <use xlink:href="#DejaVuSans-30" x="63.623047"/>
       <use xlink:href="#DejaVuSans-35" x="127.246094"/>
      </g>
     </g>
    </g>
    <g id="xtick_9">
     <g id="line2d_16">
      <g>
       <use xlink:href="#m22b75b4839" x="227.786103" y="518.65" style="stroke: #000000; stroke-width: 0.8"/>
      </g>
     </g>
     <g id="text_9">
      <!-- 452 -->
      <g transform="translate(230.545478 544.7375) rotate(-90) scale(0.1 -0.1)">
       <use xlink:href="#DejaVuSans-34"/>
       <use xlink:href="#DejaVuSans-35" x="63.623047"/>
       <use xlink:href="#DejaVuSans-32" x="127.246094"/>
      </g>
     </g>
    </g>
    <g id="xtick_10">
     <g id="line2d_17">
      <g>
       <use xlink:href="#m22b75b4839" x="244.914864" y="518.65" style="stroke: #000000; stroke-width: 0.8"/>
      </g>
     </g>
     <g id="text_10">
      <!-- 489 -->
      <g transform="translate(247.674239 544.7375) rotate(-90) scale(0.1 -0.1)">
       <use xlink:href="#DejaVuSans-34"/>
       <use xlink:href="#DejaVuSans-38" x="63.623047"/>
       <use xlink:href="#DejaVuSans-39" x="127.246094"/>
      </g>
     </g>
    </g>
    <g id="xtick_11">
     <g id="line2d_18">
      <g>
       <use xlink:href="#m22b75b4839" x="262.043626" y="518.65" style="stroke: #000000; stroke-width: 0.8"/>
      </g>
     </g>
     <g id="text_11">
      <!-- 495 -->
      <g transform="translate(264.803001 544.7375) rotate(-90) scale(0.1 -0.1)">
       <use xlink:href="#DejaVuSans-34"/>
       <use xlink:href="#DejaVuSans-39" x="63.623047"/>
       <use xlink:href="#DejaVuSans-35" x="127.246094"/>
      </g>
     </g>
    </g>
    <g id="xtick_12">
     <g id="line2d_19">
      <g>
       <use xlink:href="#m22b75b4839" x="279.172387" y="518.65" style="stroke: #000000; stroke-width: 0.8"/>
      </g>
     </g>
     <g id="text_12">
      <!-- 527 -->
      <g transform="translate(281.931762 544.7375) rotate(-90) scale(0.1 -0.1)">
       <use xlink:href="#DejaVuSans-35"/>
       <use xlink:href="#DejaVuSans-32" x="63.623047"/>
       <use xlink:href="#DejaVuSans-37" x="127.246094"/>
      </g>
     </g>
    </g>
    <g id="xtick_13">
     <g id="line2d_20">
      <g>
       <use xlink:href="#m22b75b4839" x="296.301148" y="518.65" style="stroke: #000000; stroke-width: 0.8"/>
      </g>
     </g>
     <g id="text_13">
      <!-- 746 -->
      <g transform="translate(299.060523 544.7375) rotate(-90) scale(0.1 -0.1)">
       <use xlink:href="#DejaVuSans-37"/>
       <use xlink:href="#DejaVuSans-34" x="63.623047"/>
       <use xlink:href="#DejaVuSans-36" x="127.246094"/>
      </g>
     </g>
    </g>
    <g id="xtick_14">
     <g id="line2d_21">
      <g>
       <use xlink:href="#m22b75b4839" x="313.42991" y="518.65" style="stroke: #000000; stroke-width: 0.8"/>
      </g>
     </g>
     <g id="text_14">
      <!-- 756 -->
      <g transform="translate(316.189285 544.7375) rotate(-90) scale(0.1 -0.1)">
       <use xlink:href="#DejaVuSans-37"/>
       <use xlink:href="#DejaVuSans-35" x="63.623047"/>
       <use xlink:href="#DejaVuSans-36" x="127.246094"/>
      </g>
     </g>
    </g>
    <g id="xtick_15">
     <g id="line2d_22">
      <g>
       <use xlink:href="#m22b75b4839" x="330.558671" y="518.65" style="stroke: #000000; stroke-width: 0.8"/>
      </g>
     </g>
     <g id="text_15">
      <!-- 798 -->
      <g transform="translate(333.318046 544.7375) rotate(-90) scale(0.1 -0.1)">
       <use xlink:href="#DejaVuSans-37"/>
       <use xlink:href="#DejaVuSans-39" x="63.623047"/>
       <use xlink:href="#DejaVuSans-38" x="127.246094"/>
      </g>
     </g>
    </g>
    <g id="xtick_16">
     <g id="line2d_23">
      <g>
       <use xlink:href="#m22b75b4839" x="347.687432" y="518.65" style="stroke: #000000; stroke-width: 0.8"/>
      </g>
     </g>
     <g id="text_16">
      <!-- 800 -->
      <g transform="translate(350.446807 544.7375) rotate(-90) scale(0.1 -0.1)">
       <use xlink:href="#DejaVuSans-38"/>
       <use xlink:href="#DejaVuSans-30" x="63.623047"/>
       <use xlink:href="#DejaVuSans-30" x="127.246094"/>
      </g>
     </g>
    </g>
    <g id="xtick_17">
     <g id="line2d_24">
      <g>
       <use xlink:href="#m22b75b4839" x="364.816194" y="518.65" style="stroke: #000000; stroke-width: 0.8"/>
      </g>
     </g>
     <g id="text_17">
      <!-- 912 -->
      <g transform="translate(367.575569 544.7375) rotate(-90) scale(0.1 -0.1)">
       <use xlink:href="#DejaVuSans-39"/>
       <use xlink:href="#DejaVuSans-31" x="63.623047"/>
       <use xlink:href="#DejaVuSans-32" x="127.246094"/>
      </g>
     </g>
    </g>
    <g id="xtick_18">
     <g id="line2d_25">
      <g>
       <use xlink:href="#m22b75b4839" x="381.944955" y="518.65" style="stroke: #000000; stroke-width: 0.8"/>
      </g>
     </g>
     <g id="text_18">
      <!-- 1018 -->
      <g transform="translate(384.70433 551.1) rotate(-90) scale(0.1 -0.1)">
       <use xlink:href="#DejaVuSans-31"/>
       <use xlink:href="#DejaVuSans-30" x="63.623047"/>
       <use xlink:href="#DejaVuSans-31" x="127.246094"/>
       <use xlink:href="#DejaVuSans-38" x="190.869141"/>
      </g>
     </g>
    </g>
    <g id="xtick_19">
     <g id="line2d_26">
      <g>
       <use xlink:href="#m22b75b4839" x="399.073716" y="518.65" style="stroke: #000000; stroke-width: 0.8"/>
      </g>
     </g>
     <g id="text_19">
      <!-- 1053 -->
      <g transform="translate(401.833091 551.1) rotate(-90) scale(0.1 -0.1)">
       <use xlink:href="#DejaVuSans-31"/>
       <use xlink:href="#DejaVuSans-30" x="63.623047"/>
       <use xlink:href="#DejaVuSans-35" x="127.246094"/>
       <use xlink:href="#DejaVuSans-33" x="190.869141"/>
      </g>
     </g>
    </g>
    <g id="xtick_20">
     <g id="line2d_27">
      <g>
       <use xlink:href="#m22b75b4839" x="416.202477" y="518.65" style="stroke: #000000; stroke-width: 0.8"/>
      </g>
     </g>
     <g id="text_20">
      <!-- 1126 -->
      <g transform="translate(418.961852 551.1) rotate(-90) scale(0.1 -0.1)">
       <use xlink:href="#DejaVuSans-31"/>
       <use xlink:href="#DejaVuSans-31" x="63.623047"/>
       <use xlink:href="#DejaVuSans-32" x="127.246094"/>
       <use xlink:href="#DejaVuSans-36" x="190.869141"/>
      </g>
     </g>
    </g>
    <g id="xtick_21">
     <g id="line2d_28">
      <g>
       <use xlink:href="#m22b75b4839" x="433.331239" y="518.65" style="stroke: #000000; stroke-width: 0.8"/>
      </g>
     </g>
     <g id="text_21">
      <!-- 1132 -->
      <g transform="translate(436.090614 551.1) rotate(-90) scale(0.1 -0.1)">
       <use xlink:href="#DejaVuSans-31"/>
       <use xlink:href="#DejaVuSans-31" x="63.623047"/>
       <use xlink:href="#DejaVuSans-33" x="127.246094"/>
       <use xlink:href="#DejaVuSans-32" x="190.869141"/>
      </g>
     </g>
    </g>
    <g id="xtick_22">
     <g id="line2d_29">
      <g>
       <use xlink:href="#m22b75b4839" x="450.46" y="518.65" style="stroke: #000000; stroke-width: 0.8"/>
      </g>
     </g>
     <g id="text_22">
      <!-- 1137 -->
      <g transform="translate(453.219375 551.1) rotate(-90) scale(0.1 -0.1)">
       <use xlink:href="#DejaVuSans-31"/>
       <use xlink:href="#DejaVuSans-31" x="63.623047"/>
       <use xlink:href="#DejaVuSans-33" x="127.246094"/>
       <use xlink:href="#DejaVuSans-37" x="190.869141"/>
      </g>
     </g>
    </g>
    <g id="xtick_23">
     <g id="line2d_30">
      <g>
       <use xlink:href="#m22b75b4839" x="467.588761" y="518.65" style="stroke: #000000; stroke-width: 0.8"/>
      </g>
     </g>
     <g id="text_23">
      <!-- 1147 -->
      <g transform="translate(470.348136 551.1) rotate(-90) scale(0.1 -0.1)">
       <use xlink:href="#DejaVuSans-31"/>
       <use xlink:href="#DejaVuSans-31" x="63.623047"/>
       <use xlink:href="#DejaVuSans-34" x="127.246094"/>
       <use xlink:href="#DejaVuSans-37" x="190.869141"/>
      </g>
     </g>
    </g>
    <g id="xtick_24">
     <g id="line2d_31">
      <g>
       <use xlink:href="#m22b75b4839" x="484.717523" y="518.65" style="stroke: #000000; stroke-width: 0.8"/>
      </g>
     </g>
     <g id="text_24">
      <!-- 1179 -->
      <g transform="translate(487.476898 551.1) rotate(-90) scale(0.1 -0.1)">
       <use xlink:href="#DejaVuSans-31"/>
       <use xlink:href="#DejaVuSans-31" x="63.623047"/>
       <use xlink:href="#DejaVuSans-37" x="127.246094"/>
       <use xlink:href="#DejaVuSans-39" x="190.869141"/>
      </g>
     </g>
    </g>
    <g id="xtick_25">
     <g id="line2d_32">
      <g>
       <use xlink:href="#m22b75b4839" x="501.846284" y="518.65" style="stroke: #000000; stroke-width: 0.8"/>
      </g>
     </g>
     <g id="text_25">
      <!-- 1192 -->
      <g transform="translate(504.605659 551.1) rotate(-90) scale(0.1 -0.1)">
       <use xlink:href="#DejaVuSans-31"/>
       <use xlink:href="#DejaVuSans-31" x="63.623047"/>
       <use xlink:href="#DejaVuSans-39" x="127.246094"/>
       <use xlink:href="#DejaVuSans-32" x="190.869141"/>
      </g>
     </g>
    </g>
    <g id="xtick_26">
     <g id="line2d_33">
      <g>
       <use xlink:href="#m22b75b4839" x="518.975045" y="518.65" style="stroke: #000000; stroke-width: 0.8"/>
      </g>
     </g>
     <g id="text_26">
      <!-- 1212 -->
      <g transform="translate(521.73442 551.1) rotate(-90) scale(0.1 -0.1)">
       <use xlink:href="#DejaVuSans-31"/>
       <use xlink:href="#DejaVuSans-32" x="63.623047"/>
       <use xlink:href="#DejaVuSans-31" x="127.246094"/>
       <use xlink:href="#DejaVuSans-32" x="190.869141"/>
      </g>
     </g>
    </g>
    <g id="xtick_27">
     <g id="line2d_34">
      <g>
       <use xlink:href="#m22b75b4839" x="536.103806" y="518.65" style="stroke: #000000; stroke-width: 0.8"/>
      </g>
     </g>
     <g id="text_27">
      <!-- 1321 -->
      <g transform="translate(538.863181 551.1) rotate(-90) scale(0.1 -0.1)">
       <use xlink:href="#DejaVuSans-31"/>
       <use xlink:href="#DejaVuSans-33" x="63.623047"/>
       <use xlink:href="#DejaVuSans-32" x="127.246094"/>
       <use xlink:href="#DejaVuSans-31" x="190.869141"/>
      </g>
     </g>
    </g>
    <g id="xtick_28">
     <g id="line2d_35">
      <g>
       <use xlink:href="#m22b75b4839" x="553.232568" y="518.65" style="stroke: #000000; stroke-width: 0.8"/>
      </g>
     </g>
     <g id="text_28">
      <!-- 1390 -->
      <g transform="translate(555.991943 551.1) rotate(-90) scale(0.1 -0.1)">
       <use xlink:href="#DejaVuSans-31"/>
       <use xlink:href="#DejaVuSans-33" x="63.623047"/>
       <use xlink:href="#DejaVuSans-39" x="127.246094"/>
       <use xlink:href="#DejaVuSans-30" x="190.869141"/>
      </g>
     </g>
    </g>
    <g id="xtick_29">
     <g id="line2d_36">
      <g>
       <use xlink:href="#m22b75b4839" x="570.361329" y="518.65" style="stroke: #000000; stroke-width: 0.8"/>
      </g>
     </g>
     <g id="text_29">
      <!-- 1436 -->
      <g transform="translate(573.120704 551.1) rotate(-90) scale(0.1 -0.1)">
       <use xlink:href="#DejaVuSans-31"/>
       <use xlink:href="#DejaVuSans-34" x="63.623047"/>
       <use xlink:href="#DejaVuSans-33" x="127.246094"/>
       <use xlink:href="#DejaVuSans-36" x="190.869141"/>
      </g>
     </g>
    </g>
    <g id="xtick_30">
     <g id="line2d_37">
      <g>
       <use xlink:href="#m22b75b4839" x="587.49009" y="518.65" style="stroke: #000000; stroke-width: 0.8"/>
      </g>
     </g>
     <g id="text_30">
      <!-- 1477 -->
      <g transform="translate(590.249465 551.1) rotate(-90) scale(0.1 -0.1)">
       <use xlink:href="#DejaVuSans-31"/>
       <use xlink:href="#DejaVuSans-34" x="63.623047"/>
       <use xlink:href="#DejaVuSans-37" x="127.246094"/>
       <use xlink:href="#DejaVuSans-37" x="190.869141"/>
      </g>
     </g>
    </g>
    <g id="xtick_31">
     <g id="line2d_38">
      <g>
       <use xlink:href="#m22b75b4839" x="604.618852" y="518.65" style="stroke: #000000; stroke-width: 0.8"/>
      </g>
     </g>
     <g id="text_31">
      <!-- 1497 -->
      <g transform="translate(607.378227 551.1) rotate(-90) scale(0.1 -0.1)">
       <use xlink:href="#DejaVuSans-31"/>
       <use xlink:href="#DejaVuSans-34" x="63.623047"/>
       <use xlink:href="#DejaVuSans-39" x="127.246094"/>
       <use xlink:href="#DejaVuSans-37" x="190.869141"/>
      </g>
     </g>
    </g>
    <g id="xtick_32">
     <g id="line2d_39">
      <g>
       <use xlink:href="#m22b75b4839" x="621.747613" y="518.65" style="stroke: #000000; stroke-width: 0.8"/>
      </g>
     </g>
     <g id="text_32">
      <!-- 1549 -->
      <g transform="translate(624.506988 551.1) rotate(-90) scale(0.1 -0.1)">
       <use xlink:href="#DejaVuSans-31"/>
       <use xlink:href="#DejaVuSans-35" x="63.623047"/>
       <use xlink:href="#DejaVuSans-34" x="127.246094"/>
       <use xlink:href="#DejaVuSans-39" x="190.869141"/>
      </g>
     </g>
    </g>
    <g id="xtick_33">
     <g id="line2d_40">
      <g>
       <use xlink:href="#m22b75b4839" x="638.876374" y="518.65" style="stroke: #000000; stroke-width: 0.8"/>
      </g>
     </g>
     <g id="text_33">
      <!-- 1677 -->
      <g transform="translate(641.635749 551.1) rotate(-90) scale(0.1 -0.1)">
       <use xlink:href="#DejaVuSans-31"/>
       <use xlink:href="#DejaVuSans-36" x="63.623047"/>
       <use xlink:href="#DejaVuSans-37" x="127.246094"/>
       <use xlink:href="#DejaVuSans-37" x="190.869141"/>
      </g>
     </g>
    </g>
    <g id="xtick_34">
     <g id="line2d_41">
      <g>
       <use xlink:href="#m22b75b4839" x="656.005136" y="518.65" style="stroke: #000000; stroke-width: 0.8"/>
      </g>
     </g>
     <g id="text_34">
      <!-- 1734 -->
      <g transform="translate(658.764511 551.1) rotate(-90) scale(0.1 -0.1)">
       <use xlink:href="#DejaVuSans-31"/>
       <use xlink:href="#DejaVuSans-37" x="63.623047"/>
       <use xlink:href="#DejaVuSans-33" x="127.246094"/>
       <use xlink:href="#DejaVuSans-34" x="190.869141"/>
      </g>
     </g>
    </g>
    <g id="xtick_35">
     <g id="line2d_42">
      <g>
       <use xlink:href="#m22b75b4839" x="673.133897" y="518.65" style="stroke: #000000; stroke-width: 0.8"/>
      </g>
     </g>
     <g id="text_35">
      <!-- 1736 -->
      <g transform="translate(675.893272 551.1) rotate(-90) scale(0.1 -0.1)">
       <use xlink:href="#DejaVuSans-31"/>
       <use xlink:href="#DejaVuSans-37" x="63.623047"/>
       <use xlink:href="#DejaVuSans-33" x="127.246094"/>
       <use xlink:href="#DejaVuSans-36" x="190.869141"/>
      </g>
     </g>
    </g>
    <g id="xtick_36">
     <g id="line2d_43">
      <g>
       <use xlink:href="#m22b75b4839" x="690.262658" y="518.65" style="stroke: #000000; stroke-width: 0.8"/>
      </g>
     </g>
     <g id="text_36">
      <!-- 1738 -->
      <g transform="translate(693.022033 551.1) rotate(-90) scale(0.1 -0.1)">
       <use xlink:href="#DejaVuSans-31"/>
       <use xlink:href="#DejaVuSans-37" x="63.623047"/>
       <use xlink:href="#DejaVuSans-33" x="127.246094"/>
       <use xlink:href="#DejaVuSans-38" x="190.869141"/>
      </g>
     </g>
    </g>
    <g id="xtick_37">
     <g id="line2d_44">
      <g>
       <use xlink:href="#m22b75b4839" x="707.391419" y="518.65" style="stroke: #000000; stroke-width: 0.8"/>
      </g>
     </g>
     <g id="text_37">
      <!-- 1763 -->
      <g transform="translate(710.150794 551.1) rotate(-90) scale(0.1 -0.1)">
       <use xlink:href="#DejaVuSans-31"/>
       <use xlink:href="#DejaVuSans-37" x="63.623047"/>
       <use xlink:href="#DejaVuSans-36" x="127.246094"/>
       <use xlink:href="#DejaVuSans-33" x="190.869141"/>
      </g>
     </g>
    </g>
    <g id="xtick_38">
     <g id="line2d_45">
      <g>
       <use xlink:href="#m22b75b4839" x="724.520181" y="518.65" style="stroke: #000000; stroke-width: 0.8"/>
      </g>
     </g>
     <g id="text_38">
      <!-- 1820 -->
      <g transform="translate(727.279556 551.1) rotate(-90) scale(0.1 -0.1)">
       <use xlink:href="#DejaVuSans-31"/>
       <use xlink:href="#DejaVuSans-38" x="63.623047"/>
       <use xlink:href="#DejaVuSans-32" x="127.246094"/>
       <use xlink:href="#DejaVuSans-30" x="190.869141"/>
      </g>
     </g>
    </g>
    <g id="xtick_39">
     <g id="line2d_46">
      <g>
       <use xlink:href="#m22b75b4839" x="741.648942" y="518.65" style="stroke: #000000; stroke-width: 0.8"/>
      </g>
     </g>
     <g id="text_39">
      <!-- 1859 -->
      <g transform="translate(744.408317 551.1) rotate(-90) scale(0.1 -0.1)">
       <use xlink:href="#DejaVuSans-31"/>
       <use xlink:href="#DejaVuSans-38" x="63.623047"/>
       <use xlink:href="#DejaVuSans-35" x="127.246094"/>
       <use xlink:href="#DejaVuSans-39" x="190.869141"/>
      </g>
     </g>
    </g>
    <g id="xtick_40">
     <g id="line2d_47">
      <g>
       <use xlink:href="#m22b75b4839" x="758.777703" y="518.65" style="stroke: #000000; stroke-width: 0.8"/>
      </g>
     </g>
     <g id="text_40">
      <!-- 1877 -->
      <g transform="translate(761.537078 551.1) rotate(-90) scale(0.1 -0.1)">
       <use xlink:href="#DejaVuSans-31"/>
       <use xlink:href="#DejaVuSans-38" x="63.623047"/>
       <use xlink:href="#DejaVuSans-37" x="127.246094"/>
       <use xlink:href="#DejaVuSans-37" x="190.869141"/>
      </g>
     </g>
    </g>
    <g id="xtick_41">
     <g id="line2d_48">
      <g>
       <use xlink:href="#m22b75b4839" x="775.906465" y="518.65" style="stroke: #000000; stroke-width: 0.8"/>
      </g>
     </g>
     <g id="text_41">
      <!-- 1913 -->
      <g transform="translate(778.66584 551.1) rotate(-90) scale(0.1 -0.1)">
       <use xlink:href="#DejaVuSans-31"/>
       <use xlink:href="#DejaVuSans-39" x="63.623047"/>
       <use xlink:href="#DejaVuSans-31" x="127.246094"/>
       <use xlink:href="#DejaVuSans-33" x="190.869141"/>
      </g>
     </g>
    </g>
    <g id="xtick_42">
     <g id="line2d_49">
      <g>
       <use xlink:href="#m22b75b4839" x="793.035226" y="518.65" style="stroke: #000000; stroke-width: 0.8"/>
      </g>
     </g>
     <g id="text_42">
      <!-- 1926 -->
      <g transform="translate(795.794601 551.1) rotate(-90) scale(0.1 -0.1)">
       <use xlink:href="#DejaVuSans-31"/>
       <use xlink:href="#DejaVuSans-39" x="63.623047"/>
       <use xlink:href="#DejaVuSans-32" x="127.246094"/>
       <use xlink:href="#DejaVuSans-36" x="190.869141"/>
      </g>
     </g>
    </g>
    <g id="xtick_43">
     <g id="line2d_50">
      <g>
       <use xlink:href="#m22b75b4839" x="810.163987" y="518.65" style="stroke: #000000; stroke-width: 0.8"/>
      </g>
     </g>
     <g id="text_43">
      <!-- 1957 -->
      <g transform="translate(812.923362 551.1) rotate(-90) scale(0.1 -0.1)">
       <use xlink:href="#DejaVuSans-31"/>
       <use xlink:href="#DejaVuSans-39" x="63.623047"/>
       <use xlink:href="#DejaVuSans-35" x="127.246094"/>
       <use xlink:href="#DejaVuSans-37" x="190.869141"/>
      </g>
     </g>
    </g>
    <g id="text_44">
     <!-- Latent -->
     <g transform="translate(434.444375 562.698438) scale(0.1 -0.1)">
      <defs>
       <path id="DejaVuSans-4c" d="M 628 4666 
L 1259 4666 
L 1259 531 
L 3531 531 
L 3531 0 
L 628 0 
L 628 4666 
z
" transform="scale(0.015625)"/>
       <path id="DejaVuSans-61" d="M 2194 1759 
Q 1497 1759 1228 1600 
Q 959 1441 959 1056 
Q 959 750 1161 570 
Q 1363 391 1709 391 
Q 2188 391 2477 730 
Q 2766 1069 2766 1631 
L 2766 1759 
L 2194 1759 
z
M 3341 1997 
L 3341 0 
L 2766 0 
L 2766 531 
Q 2569 213 2275 61 
Q 1981 -91 1556 -91 
Q 1019 -91 701 211 
Q 384 513 384 1019 
Q 384 1609 779 1909 
Q 1175 2209 1959 2209 
L 2766 2209 
L 2766 2266 
Q 2766 2663 2505 2880 
Q 2244 3097 1772 3097 
Q 1472 3097 1187 3025 
Q 903 2953 641 2809 
L 641 3341 
Q 956 3463 1253 3523 
Q 1550 3584 1831 3584 
Q 2591 3584 2966 3190 
Q 3341 2797 3341 1997 
z
" transform="scale(0.015625)"/>
       <path id="DejaVuSans-74" d="M 1172 4494 
L 1172 3500 
L 2356 3500 
L 2356 3053 
L 1172 3053 
L 1172 1153 
Q 1172 725 1289 603 
Q 1406 481 1766 481 
L 2356 481 
L 2356 0 
L 1766 0 
Q 1100 0 847 248 
Q 594 497 594 1153 
L 594 3053 
L 172 3053 
L 172 3500 
L 594 3500 
L 594 4494 
L 1172 4494 
z
" transform="scale(0.015625)"/>
       <path id="DejaVuSans-65" d="M 3597 1894 
L 3597 1613 
L 953 1613 
Q 991 1019 1311 708 
Q 1631 397 2203 397 
Q 2534 397 2845 478 
Q 3156 559 3463 722 
L 3463 178 
Q 3153 47 2828 -22 
Q 2503 -91 2169 -91 
Q 1331 -91 842 396 
Q 353 884 353 1716 
Q 353 2575 817 3079 
Q 1281 3584 2069 3584 
Q 2775 3584 3186 3129 
Q 3597 2675 3597 1894 
z
M 3022 2063 
Q 3016 2534 2758 2815 
Q 2500 3097 2075 3097 
Q 1594 3097 1305 2825 
Q 1016 2553 972 2059 
L 3022 2063 
z
" transform="scale(0.015625)"/>
       <path id="DejaVuSans-6e" d="M 3513 2113 
L 3513 0 
L 2938 0 
L 2938 2094 
Q 2938 2591 2744 2837 
Q 2550 3084 2163 3084 
Q 1697 3084 1428 2787 
Q 1159 2491 1159 1978 
L 1159 0 
L 581 0 
L 581 3500 
L 1159 3500 
L 1159 2956 
Q 1366 3272 1645 3428 
Q 1925 3584 2291 3584 
Q 2894 3584 3203 3211 
Q 3513 2838 3513 2113 
z
" transform="scale(0.015625)"/>
      </defs>
      <use xlink:href="#DejaVuSans-4c"/>
      <use xlink:href="#DejaVuSans-61" x="55.712891"/>
      <use xlink:href="#DejaVuSans-74" x="116.992188"/>
      <use xlink:href="#DejaVuSans-65" x="156.201172"/>
      <use xlink:href="#DejaVuSans-6e" x="217.724609"/>
      <use xlink:href="#DejaVuSans-74" x="281.103516"/>
     </g>
    </g>
   </g>
   <g id="matplotlib.axis_2">
    <g id="ytick_1">
     <g id="line2d_51">
      <defs>
       <path id="mabe34aa150" d="M 0 0 
L -3.5 0 
" style="stroke: #000000; stroke-width: 0.8"/>
      </defs>
      <g>
       <use xlink:href="#mabe34aa150" x="47.72" y="518.65" style="stroke: #000000; stroke-width: 0.8"/>
      </g>
     </g>
     <g id="text_45">
      <!-- 0.4 -->
      <g transform="translate(24.816875 522.449219) scale(0.1 -0.1)">
       <defs>
        <path id="DejaVuSans-2e" d="M 684 794 
L 1344 794 
L 1344 0 
L 684 0 
L 684 794 
z
" transform="scale(0.015625)"/>
       </defs>
       <use xlink:href="#DejaVuSans-30"/>
       <use xlink:href="#DejaVuSans-2e" x="63.623047"/>
       <use xlink:href="#DejaVuSans-34" x="95.410156"/>
      </g>
     </g>
    </g>
    <g id="ytick_2">
     <g id="line2d_52">
      <g>
       <use xlink:href="#mabe34aa150" x="47.72" y="436.688333" style="stroke: #000000; stroke-width: 0.8"/>
      </g>
     </g>
     <g id="text_46">
      <!-- 0.5 -->
      <g transform="translate(24.816875 440.487552) scale(0.1 -0.1)">
       <use xlink:href="#DejaVuSans-30"/>
       <use xlink:href="#DejaVuSans-2e" x="63.623047"/>
       <use xlink:href="#DejaVuSans-35" x="95.410156"/>
      </g>
     </g>
    </g>
    <g id="ytick_3">
     <g id="line2d_53">
      <g>
       <use xlink:href="#mabe34aa150" x="47.72" y="354.726667" style="stroke: #000000; stroke-width: 0.8"/>
      </g>
     </g>
     <g id="text_47">
      <!-- 0.6 -->
      <g transform="translate(24.816875 358.525885) scale(0.1 -0.1)">
       <use xlink:href="#DejaVuSans-30"/>
       <use xlink:href="#DejaVuSans-2e" x="63.623047"/>
       <use xlink:href="#DejaVuSans-36" x="95.410156"/>
      </g>
     </g>
    </g>
    <g id="ytick_4">
     <g id="line2d_54">
      <g>
       <use xlink:href="#mabe34aa150" x="47.72" y="272.765" style="stroke: #000000; stroke-width: 0.8"/>
      </g>
     </g>
     <g id="text_48">
      <!-- 0.7 -->
      <g transform="translate(24.816875 276.564219) scale(0.1 -0.1)">
       <use xlink:href="#DejaVuSans-30"/>
       <use xlink:href="#DejaVuSans-2e" x="63.623047"/>
       <use xlink:href="#DejaVuSans-37" x="95.410156"/>
      </g>
     </g>
    </g>
    <g id="ytick_5">
     <g id="line2d_55">
      <g>
       <use xlink:href="#mabe34aa150" x="47.72" y="190.803333" style="stroke: #000000; stroke-width: 0.8"/>
      </g>
     </g>
     <g id="text_49">
      <!-- 0.8 -->
      <g transform="translate(24.816875 194.602552) scale(0.1 -0.1)">
       <use xlink:href="#DejaVuSans-30"/>
       <use xlink:href="#DejaVuSans-2e" x="63.623047"/>
       <use xlink:href="#DejaVuSans-38" x="95.410156"/>
      </g>
     </g>
    </g>
    <g id="ytick_6">
     <g id="line2d_56">
      <g>
       <use xlink:href="#mabe34aa150" x="47.72" y="108.841667" style="stroke: #000000; stroke-width: 0.8"/>
      </g>
     </g>
     <g id="text_50">
      <!-- 0.9 -->
      <g transform="translate(24.816875 112.640885) scale(0.1 -0.1)">
       <use xlink:href="#DejaVuSans-30"/>
       <use xlink:href="#DejaVuSans-2e" x="63.623047"/>
       <use xlink:href="#DejaVuSans-39" x="95.410156"/>
      </g>
     </g>
    </g>
    <g id="ytick_7">
     <g id="line2d_57">
      <g>
       <use xlink:href="#mabe34aa150" x="47.72" y="26.88" style="stroke: #000000; stroke-width: 0.8"/>
      </g>
     </g>
     <g id="text_51">
      <!-- 1.0 -->
      <g transform="translate(24.816875 30.679219) scale(0.1 -0.1)">
       <use xlink:href="#DejaVuSans-31"/>
       <use xlink:href="#DejaVuSans-2e" x="63.623047"/>
       <use xlink:href="#DejaVuSans-30" x="95.410156"/>
      </g>
     </g>
    </g>
    <g id="text_52">
     <!-- Scores -->
     <g transform="translate(18.737188 289.372031) rotate(-90) scale(0.1 -0.1)">
      <defs>
       <path id="DejaVuSans-53" d="M 3425 4513 
L 3425 3897 
Q 3066 4069 2747 4153 
Q 2428 4238 2131 4238 
Q 1616 4238 1336 4038 
Q 1056 3838 1056 3469 
Q 1056 3159 1242 3001 
Q 1428 2844 1947 2747 
L 2328 2669 
Q 3034 2534 3370 2195 
Q 3706 1856 3706 1288 
Q 3706 609 3251 259 
Q 2797 -91 1919 -91 
Q 1588 -91 1214 -16 
Q 841 59 441 206 
L 441 856 
Q 825 641 1194 531 
Q 1563 422 1919 422 
Q 2459 422 2753 634 
Q 3047 847 3047 1241 
Q 3047 1584 2836 1778 
Q 2625 1972 2144 2069 
L 1759 2144 
Q 1053 2284 737 2584 
Q 422 2884 422 3419 
Q 422 4038 858 4394 
Q 1294 4750 2059 4750 
Q 2388 4750 2728 4690 
Q 3069 4631 3425 4513 
z
" transform="scale(0.015625)"/>
       <path id="DejaVuSans-63" d="M 3122 3366 
L 3122 2828 
Q 2878 2963 2633 3030 
Q 2388 3097 2138 3097 
Q 1578 3097 1268 2742 
Q 959 2388 959 1747 
Q 959 1106 1268 751 
Q 1578 397 2138 397 
Q 2388 397 2633 464 
Q 2878 531 3122 666 
L 3122 134 
Q 2881 22 2623 -34 
Q 2366 -91 2075 -91 
Q 1284 -91 818 406 
Q 353 903 353 1747 
Q 353 2603 823 3093 
Q 1294 3584 2113 3584 
Q 2378 3584 2631 3529 
Q 2884 3475 3122 3366 
z
" transform="scale(0.015625)"/>
       <path id="DejaVuSans-6f" d="M 1959 3097 
Q 1497 3097 1228 2736 
Q 959 2375 959 1747 
Q 959 1119 1226 758 
Q 1494 397 1959 397 
Q 2419 397 2687 759 
Q 2956 1122 2956 1747 
Q 2956 2369 2687 2733 
Q 2419 3097 1959 3097 
z
M 1959 3584 
Q 2709 3584 3137 3096 
Q 3566 2609 3566 1747 
Q 3566 888 3137 398 
Q 2709 -91 1959 -91 
Q 1206 -91 779 398 
Q 353 888 353 1747 
Q 353 2609 779 3096 
Q 1206 3584 1959 3584 
z
" transform="scale(0.015625)"/>
       <path id="DejaVuSans-72" d="M 2631 2963 
Q 2534 3019 2420 3045 
Q 2306 3072 2169 3072 
Q 1681 3072 1420 2755 
Q 1159 2438 1159 1844 
L 1159 0 
L 581 0 
L 581 3500 
L 1159 3500 
L 1159 2956 
Q 1341 3275 1631 3429 
Q 1922 3584 2338 3584 
Q 2397 3584 2469 3576 
Q 2541 3569 2628 3553 
L 2631 2963 
z
" transform="scale(0.015625)"/>
       <path id="DejaVuSans-73" d="M 2834 3397 
L 2834 2853 
Q 2591 2978 2328 3040 
Q 2066 3103 1784 3103 
Q 1356 3103 1142 2972 
Q 928 2841 928 2578 
Q 928 2378 1081 2264 
Q 1234 2150 1697 2047 
L 1894 2003 
Q 2506 1872 2764 1633 
Q 3022 1394 3022 966 
Q 3022 478 2636 193 
Q 2250 -91 1575 -91 
Q 1294 -91 989 -36 
Q 684 19 347 128 
L 347 722 
Q 666 556 975 473 
Q 1284 391 1588 391 
Q 1994 391 2212 530 
Q 2431 669 2431 922 
Q 2431 1156 2273 1281 
Q 2116 1406 1581 1522 
L 1381 1569 
Q 847 1681 609 1914 
Q 372 2147 372 2553 
Q 372 3047 722 3315 
Q 1072 3584 1716 3584 
Q 2034 3584 2315 3537 
Q 2597 3491 2834 3397 
z
" transform="scale(0.015625)"/>
      </defs>
      <use xlink:href="#DejaVuSans-53"/>
      <use xlink:href="#DejaVuSans-63" x="63.476562"/>
      <use xlink:href="#DejaVuSans-6f" x="118.457031"/>
      <use xlink:href="#DejaVuSans-72" x="179.638672"/>
      <use xlink:href="#DejaVuSans-65" x="218.501953"/>
      <use xlink:href="#DejaVuSans-73" x="280.025391"/>
     </g>
    </g>
   </g>
   <g id="patch_132">
    <path d="M 47.72 518.65 
L 47.72 26.88 
" style="fill: none; stroke: #000000; stroke-width: 0.8; stroke-linejoin: miter; stroke-linecap: square"/>
   </g>
   <g id="patch_133">
    <path d="M 853.2 518.65 
L 853.2 26.88 
" style="fill: none; stroke: #000000; stroke-width: 0.8; stroke-linejoin: miter; stroke-linecap: square"/>
   </g>
   <g id="patch_134">
    <path d="M 47.72 518.65 
L 853.2 518.65 
" style="fill: none; stroke: #000000; stroke-width: 0.8; stroke-linejoin: miter; stroke-linecap: square"/>
   </g>
   <g id="patch_135">
    <path d="M 47.72 26.88 
L 853.2 26.88 
" style="fill: none; stroke: #000000; stroke-width: 0.8; stroke-linejoin: miter; stroke-linecap: square"/>
   </g>
   <g id="text_53">
    <!-- Comparison of GCG, AmpleGCG, and AmpleGCG-plus across Latents -->
    <g transform="translate(245.4625 20.88) scale(0.12 -0.12)">
     <defs>
      <path id="DejaVuSans-43" d="M 4122 4306 
L 4122 3641 
Q 3803 3938 3442 4084 
Q 3081 4231 2675 4231 
Q 1875 4231 1450 3742 
Q 1025 3253 1025 2328 
Q 1025 1406 1450 917 
Q 1875 428 2675 428 
Q 3081 428 3442 575 
Q 3803 722 4122 1019 
L 4122 359 
Q 3791 134 3420 21 
Q 3050 -91 2638 -91 
Q 1578 -91 968 557 
Q 359 1206 359 2328 
Q 359 3453 968 4101 
Q 1578 4750 2638 4750 
Q 3056 4750 3426 4639 
Q 3797 4528 4122 4306 
z
" transform="scale(0.015625)"/>
      <path id="DejaVuSans-6d" d="M 3328 2828 
Q 3544 3216 3844 3400 
Q 4144 3584 4550 3584 
Q 5097 3584 5394 3201 
Q 5691 2819 5691 2113 
L 5691 0 
L 5113 0 
L 5113 2094 
Q 5113 2597 4934 2840 
Q 4756 3084 4391 3084 
Q 3944 3084 3684 2787 
Q 3425 2491 3425 1978 
L 3425 0 
L 2847 0 
L 2847 2094 
Q 2847 2600 2669 2842 
Q 2491 3084 2119 3084 
Q 1678 3084 1418 2786 
Q 1159 2488 1159 1978 
L 1159 0 
L 581 0 
L 581 3500 
L 1159 3500 
L 1159 2956 
Q 1356 3278 1631 3431 
Q 1906 3584 2284 3584 
Q 2666 3584 2933 3390 
Q 3200 3197 3328 2828 
z
" transform="scale(0.015625)"/>
      <path id="DejaVuSans-70" d="M 1159 525 
L 1159 -1331 
L 581 -1331 
L 581 3500 
L 1159 3500 
L 1159 2969 
Q 1341 3281 1617 3432 
Q 1894 3584 2278 3584 
Q 2916 3584 3314 3078 
Q 3713 2572 3713 1747 
Q 3713 922 3314 415 
Q 2916 -91 2278 -91 
Q 1894 -91 1617 61 
Q 1341 213 1159 525 
z
M 3116 1747 
Q 3116 2381 2855 2742 
Q 2594 3103 2138 3103 
Q 1681 3103 1420 2742 
Q 1159 2381 1159 1747 
Q 1159 1113 1420 752 
Q 1681 391 2138 391 
Q 2594 391 2855 752 
Q 3116 1113 3116 1747 
z
" transform="scale(0.015625)"/>
      <path id="DejaVuSans-69" d="M 603 3500 
L 1178 3500 
L 1178 0 
L 603 0 
L 603 3500 
z
M 603 4863 
L 1178 4863 
L 1178 4134 
L 603 4134 
L 603 4863 
z
" transform="scale(0.015625)"/>
      <path id="DejaVuSans-20" transform="scale(0.015625)"/>
      <path id="DejaVuSans-66" d="M 2375 4863 
L 2375 4384 
L 1825 4384 
Q 1516 4384 1395 4259 
Q 1275 4134 1275 3809 
L 1275 3500 
L 2222 3500 
L 2222 3053 
L 1275 3053 
L 1275 0 
L 697 0 
L 697 3053 
L 147 3053 
L 147 3500 
L 697 3500 
L 697 3744 
Q 697 4328 969 4595 
Q 1241 4863 1831 4863 
L 2375 4863 
z
" transform="scale(0.015625)"/>
      <path id="DejaVuSans-47" d="M 3809 666 
L 3809 1919 
L 2778 1919 
L 2778 2438 
L 4434 2438 
L 4434 434 
Q 4069 175 3628 42 
Q 3188 -91 2688 -91 
Q 1594 -91 976 548 
Q 359 1188 359 2328 
Q 359 3472 976 4111 
Q 1594 4750 2688 4750 
Q 3144 4750 3555 4637 
Q 3966 4525 4313 4306 
L 4313 3634 
Q 3963 3931 3569 4081 
Q 3175 4231 2741 4231 
Q 1884 4231 1454 3753 
Q 1025 3275 1025 2328 
Q 1025 1384 1454 906 
Q 1884 428 2741 428 
Q 3075 428 3337 486 
Q 3600 544 3809 666 
z
" transform="scale(0.015625)"/>
      <path id="DejaVuSans-2c" d="M 750 794 
L 1409 794 
L 1409 256 
L 897 -744 
L 494 -744 
L 750 256 
L 750 794 
z
" transform="scale(0.015625)"/>
      <path id="DejaVuSans-41" d="M 2188 4044 
L 1331 1722 
L 3047 1722 
L 2188 4044 
z
M 1831 4666 
L 2547 4666 
L 4325 0 
L 3669 0 
L 3244 1197 
L 1141 1197 
L 716 0 
L 50 0 
L 1831 4666 
z
" transform="scale(0.015625)"/>
      <path id="DejaVuSans-6c" d="M 603 4863 
L 1178 4863 
L 1178 0 
L 603 0 
L 603 4863 
z
" transform="scale(0.015625)"/>
      <path id="DejaVuSans-64" d="M 2906 2969 
L 2906 4863 
L 3481 4863 
L 3481 0 
L 2906 0 
L 2906 525 
Q 2725 213 2448 61 
Q 2172 -91 1784 -91 
Q 1150 -91 751 415 
Q 353 922 353 1747 
Q 353 2572 751 3078 
Q 1150 3584 1784 3584 
Q 2172 3584 2448 3432 
Q 2725 3281 2906 2969 
z
M 947 1747 
Q 947 1113 1208 752 
Q 1469 391 1925 391 
Q 2381 391 2643 752 
Q 2906 1113 2906 1747 
Q 2906 2381 2643 2742 
Q 2381 3103 1925 3103 
Q 1469 3103 1208 2742 
Q 947 2381 947 1747 
z
" transform="scale(0.015625)"/>
      <path id="DejaVuSans-2d" d="M 313 2009 
L 1997 2009 
L 1997 1497 
L 313 1497 
L 313 2009 
z
" transform="scale(0.015625)"/>
      <path id="DejaVuSans-75" d="M 544 1381 
L 544 3500 
L 1119 3500 
L 1119 1403 
Q 1119 906 1312 657 
Q 1506 409 1894 409 
Q 2359 409 2629 706 
Q 2900 1003 2900 1516 
L 2900 3500 
L 3475 3500 
L 3475 0 
L 2900 0 
L 2900 538 
Q 2691 219 2414 64 
Q 2138 -91 1772 -91 
Q 1169 -91 856 284 
Q 544 659 544 1381 
z
M 1991 3584 
L 1991 3584 
z
" transform="scale(0.015625)"/>
     </defs>
     <use xlink:href="#DejaVuSans-43"/>
     <use xlink:href="#DejaVuSans-6f" x="69.824219"/>
     <use xlink:href="#DejaVuSans-6d" x="131.005859"/>
     <use xlink:href="#DejaVuSans-70" x="228.417969"/>
     <use xlink:href="#DejaVuSans-61" x="291.894531"/>
     <use xlink:href="#DejaVuSans-72" x="353.173828"/>
     <use xlink:href="#DejaVuSans-69" x="394.287109"/>
     <use xlink:href="#DejaVuSans-73" x="422.070312"/>
     <use xlink:href="#DejaVuSans-6f" x="474.169922"/>
     <use xlink:href="#DejaVuSans-6e" x="535.351562"/>
     <use xlink:href="#DejaVuSans-20" x="598.730469"/>
     <use xlink:href="#DejaVuSans-6f" x="630.517578"/>
     <use xlink:href="#DejaVuSans-66" x="691.699219"/>
     <use xlink:href="#DejaVuSans-20" x="726.904297"/>
     <use xlink:href="#DejaVuSans-47" x="758.691406"/>
     <use xlink:href="#DejaVuSans-43" x="836.181641"/>
     <use xlink:href="#DejaVuSans-47" x="906.005859"/>
     <use xlink:href="#DejaVuSans-2c" x="983.496094"/>
     <use xlink:href="#DejaVuSans-20" x="1015.283203"/>
     <use xlink:href="#DejaVuSans-41" x="1047.070312"/>
     <use xlink:href="#DejaVuSans-6d" x="1115.478516"/>
     <use xlink:href="#DejaVuSans-70" x="1212.890625"/>
     <use xlink:href="#DejaVuSans-6c" x="1276.367188"/>
     <use xlink:href="#DejaVuSans-65" x="1304.150391"/>
     <use xlink:href="#DejaVuSans-47" x="1365.673828"/>
     <use xlink:href="#DejaVuSans-43" x="1443.164062"/>
     <use xlink:href="#DejaVuSans-47" x="1512.988281"/>
     <use xlink:href="#DejaVuSans-2c" x="1590.478516"/>
     <use xlink:href="#DejaVuSans-20" x="1622.265625"/>
     <use xlink:href="#DejaVuSans-61" x="1654.052734"/>
     <use xlink:href="#DejaVuSans-6e" x="1715.332031"/>
     <use xlink:href="#DejaVuSans-64" x="1778.710938"/>
     <use xlink:href="#DejaVuSans-20" x="1842.1875"/>
     <use xlink:href="#DejaVuSans-41" x="1873.974609"/>
     <use xlink:href="#DejaVuSans-6d" x="1942.382812"/>
     <use xlink:href="#DejaVuSans-70" x="2039.794922"/>
     <use xlink:href="#DejaVuSans-6c" x="2103.271484"/>
     <use xlink:href="#DejaVuSans-65" x="2131.054688"/>
     <use xlink:href="#DejaVuSans-47" x="2192.578125"/>
     <use xlink:href="#DejaVuSans-43" x="2270.068359"/>
     <use xlink:href="#DejaVuSans-47" x="2339.892578"/>
     <use xlink:href="#DejaVuSans-2d" x="2417.382812"/>
     <use xlink:href="#DejaVuSans-70" x="2453.466797"/>
     <use xlink:href="#DejaVuSans-6c" x="2516.943359"/>
     <use xlink:href="#DejaVuSans-75" x="2544.726562"/>
     <use xlink:href="#DejaVuSans-73" x="2608.105469"/>
     <use xlink:href="#DejaVuSans-20" x="2660.205078"/>
     <use xlink:href="#DejaVuSans-61" x="2691.992188"/>
     <use xlink:href="#DejaVuSans-63" x="2753.271484"/>
     <use xlink:href="#DejaVuSans-72" x="2808.251953"/>
     <use xlink:href="#DejaVuSans-6f" x="2847.115234"/>
     <use xlink:href="#DejaVuSans-73" x="2908.296875"/>
     <use xlink:href="#DejaVuSans-73" x="2960.396484"/>
     <use xlink:href="#DejaVuSans-20" x="3012.496094"/>
     <use xlink:href="#DejaVuSans-4c" x="3044.283203"/>
     <use xlink:href="#DejaVuSans-61" x="3099.996094"/>
     <use xlink:href="#DejaVuSans-74" x="3161.275391"/>
     <use xlink:href="#DejaVuSans-65" x="3200.484375"/>
     <use xlink:href="#DejaVuSans-6e" x="3262.007812"/>
     <use xlink:href="#DejaVuSans-74" x="3325.386719"/>
     <use xlink:href="#DejaVuSans-73" x="3364.595703"/>
    </g>
   </g>
   <g id="legend_1">
    <g id="patch_136">
     <path d="M 735.578125 78.914375 
L 846.2 78.914375 
Q 848.2 78.914375 848.2 76.914375 
L 848.2 33.88 
Q 848.2 31.88 846.2 31.88 
L 735.578125 31.88 
Q 733.578125 31.88 733.578125 33.88 
L 733.578125 76.914375 
Q 733.578125 78.914375 735.578125 78.914375 
z
" style="fill: #ffffff; opacity: 0.8; stroke: #cccccc; stroke-linejoin: miter"/>
    </g>
    <g id="patch_137">
     <path d="M 737.578125 43.478438 
L 757.578125 43.478438 
L 757.578125 36.478438 
L 737.578125 36.478438 
z
" style="fill: #1f77b4"/>
    </g>
    <g id="text_54">
     <!-- GCG -->
     <g transform="translate(765.578125 43.478438) scale(0.1 -0.1)">
      <use xlink:href="#DejaVuSans-47"/>
      <use xlink:href="#DejaVuSans-43" x="77.490234"/>
      <use xlink:href="#DejaVuSans-47" x="147.314453"/>
     </g>
    </g>
    <g id="patch_138">
     <path d="M 737.578125 58.156563 
L 757.578125 58.156563 
L 757.578125 51.156563 
L 737.578125 51.156563 
z
" style="fill: #ff7f0e"/>
    </g>
    <g id="text_55">
     <!-- AmpleGCG -->
     <g transform="translate(765.578125 58.156563) scale(0.1 -0.1)">
      <use xlink:href="#DejaVuSans-41"/>
      <use xlink:href="#DejaVuSans-6d" x="68.408203"/>
      <use xlink:href="#DejaVuSans-70" x="165.820312"/>
      <use xlink:href="#DejaVuSans-6c" x="229.296875"/>
      <use xlink:href="#DejaVuSans-65" x="257.080078"/>
      <use xlink:href="#DejaVuSans-47" x="318.603516"/>
      <use xlink:href="#DejaVuSans-43" x="396.09375"/>
      <use xlink:href="#DejaVuSans-47" x="465.917969"/>
     </g>
    </g>
    <g id="patch_139">
     <path d="M 737.578125 72.834688 
L 757.578125 72.834688 
L 757.578125 65.834688 
L 737.578125 65.834688 
z
" style="fill: #2ca02c"/>
    </g>
    <g id="text_56">
     <!-- AmpleGCG-plus -->
     <g transform="translate(765.578125 72.834688) scale(0.1 -0.1)">
      <use xlink:href="#DejaVuSans-41"/>
      <use xlink:href="#DejaVuSans-6d" x="68.408203"/>
      <use xlink:href="#DejaVuSans-70" x="165.820312"/>
      <use xlink:href="#DejaVuSans-6c" x="229.296875"/>
      <use xlink:href="#DejaVuSans-65" x="257.080078"/>
      <use xlink:href="#DejaVuSans-47" x="318.603516"/>
      <use xlink:href="#DejaVuSans-43" x="396.09375"/>
      <use xlink:href="#DejaVuSans-47" x="465.917969"/>
      <use xlink:href="#DejaVuSans-2d" x="543.408203"/>
      <use xlink:href="#DejaVuSans-70" x="579.492188"/>
      <use xlink:href="#DejaVuSans-6c" x="642.96875"/>
      <use xlink:href="#DejaVuSans-75" x="670.751953"/>
      <use xlink:href="#DejaVuSans-73" x="734.130859"/>
     </g>
    </g>
   </g>
  </g>
 </g>
 <defs>
  <clipPath id="p10aa2c0684">
   <rect x="47.72" y="26.88" width="805.48" height="491.77"/>
  </clipPath>
 </defs>
</svg>
